{
    "asset" : {
        "version" : "2.0",
        "generator" : "Khronos glTF Blender I/O v1.2.20"
    },
    "scene" : 0,
    "scenes" : [
        {
            "nodes" : [
                0
            ],
            "name" : "Scene"
        }
    ],
    "nodes" : [
        {
            "scale" : [
                1.4062323570251465,
                1.9730440378189087,
                0.5144282579421997
            ],
            "name" : "Cube.002",
            "mesh" : 0,
            "translation" : [
                0,
                1.9976489543914795,
                -7.233885765075684
            ]
        }
    ],
    "materials" : [
        {
            "pbrMetallicRoughness" : {
                "baseColorTexture" : {
                    "texCoord" : 0,
                    "index" : 0
                },
                "roughnessFactor" : 1,
                "metallicFactor" : 0
            },
            "name" : "Material.007"
        }
    ],
    "meshes" : [
        {
            "name" : "Cube.006",
            "primitives" : [
                {
                    "indices" : 3,
                    "material" : 0,
                    "attributes" : {
                        "TEXCOORD_0" : 0,
                        "POSITION" : 1,
                        "NORMAL" : 2
                    }
                }
            ]
        }
    ],
    "textures" : [
        {
            "source" : 0
        }
    ],
    "images" : [
        {
            "bufferView" : 4,
            "mimeType" : "image/png",
            "name" : "portalkamienny"
        }
    ],
    "accessors" : [
        {
            "type" : "VEC2",
            "bufferView" : 0,
            "count" : 102,
            "componentType" : 5126
        },
        {
            "bufferView" : 1,
            "componentType" : 5126,
            "min" : [
                -1,
                -1,
                -1
            ],
            "type" : "VEC3",
            "count" : 102,
            "max" : [
                1,
                1,
                1
            ]
        },
        {
            "type" : "VEC3",
            "bufferView" : 2,
            "count" : 102,
            "componentType" : 5126
        },
        {
            "type" : "SCALAR",
            "bufferView" : 3,
            "count" : 216,
            "componentType" : 5123
        }
    ],
    "bufferViews" : [
        {
            "byteOffset" : 0,
            "buffer" : 0,
            "byteLength" : 816
        },
        {
            "byteOffset" : 816,
            "buffer" : 0,
            "byteLength" : 1224
        },
        {
            "byteOffset" : 2040,
            "buffer" : 0,
            "byteLength" : 1224
        },
        {
            "byteOffset" : 3264,
            "buffer" : 0,
            "byteLength" : 432
        },
        {
            "byteOffset" : 3696,
            "buffer" : 0,
            "byteLength" : 38922
        }
    ],
    "buffers" : [
        {
            "uri" : "data:application/octet-stream;base64,",
            "byteLength" : 42620
        }
    ]
}
