{
    "asset" : {
        "version" : "2.0",
        "generator" : "Khronos glTF Blender I/O v1.2.20"
    },
    "scene" : 0,
    "scenes" : [
        {
            "name" : "Scene",
            "nodes" : [
                0
            ]
        }
    ],
    "nodes" : [
        {
            "scale" : [
                0.5100319385528564,
                0.5100319385528564,
                0.5100319385528564
            ],
            "rotation" : [
                -0.5992531776428223,
                0.6036331057548523,
                -0.16158939898014069,
                -0.5004113912582397
            ],
            "translation" : [
                0,
                0.405871719121933,
                0
            ],
            "mesh" : 0,
            "name" : "Cube.002"
        }
    ],
    "materials" : [
        {
            "name" : "Material.009",
            "pbrMetallicRoughness" : {
                "baseColorTexture" : {
                    "index" : 0,
                    "texCoord" : 0
                },
                "roughnessFactor" : 1,
                "metallicFactor" : 0
            }
        }
    ],
    "meshes" : [
        {
            "primitives" : [
                {
                    "material" : 0,
                    "attributes" : {
                        "TEXCOORD_0" : 0,
                        "POSITION" : 1,
                        "NORMAL" : 2
                    },
                    "indices" : 3
                }
            ],
            "name" : "Cube.002"
        }
    ],
    "textures" : [
        {
            "source" : 0
        }
    ],
    "images" : [
        {
            "mimeType" : "image/png",
            "bufferView" : 4,
            "name" : "kamien"
        }
    ],
    "accessors" : [
        {
            "count" : 338,
            "componentType" : 5126,
            "bufferView" : 0,
            "type" : "VEC2"
        },
        {
            "max" : [
                0.9825220704078674,
                1.1220089197158813,
                1.0733320713043213
            ],
            "type" : "VEC3",
            "count" : 338,
            "componentType" : 5126,
            "min" : [
                -0.9241554737091064,
                -0.9944325089454651,
                -0.9132393002510071
            ],
            "bufferView" : 1
        },
        {
            "count" : 338,
            "componentType" : 5126,
            "bufferView" : 2,
            "type" : "VEC3"
        },
        {
            "count" : 696,
            "componentType" : 5123,
            "bufferView" : 3,
            "type" : "SCALAR"
        }
    ],
    "bufferViews" : [
        {
            "byteLength" : 2704,
            "byteOffset" : 0,
            "buffer" : 0
        },
        {
            "byteLength" : 4056,
            "byteOffset" : 2704,
            "buffer" : 0
        },
        {
            "byteLength" : 4056,
            "byteOffset" : 6760,
            "buffer" : 0
        },
        {
            "byteLength" : 1392,
            "byteOffset" : 10816,
            "buffer" : 0
        },
        {
            "byteLength" : 42205,
            "byteOffset" : 12208,
            "buffer" : 0
        }
    ],
    "buffers" : [
        {
            "uri" : "data:application/octet-stream;base64,",
            "byteLength" : 54416
        }
    ]
}
