{
    "asset" : {
        "generator" : "Khronos glTF Blender I/O v1.2.20",
        "version" : "2.0"
    },
    "scene" : 0,
    "scenes" : [
        {
            "name" : "Scene",
            "nodes" : [
                0
            ]
        }
    ],
    "nodes" : [
        {
            "name" : "Cube.003",
            "scale" : [
                0.3657776415348053,
                0.1320573091506958,
                0.509022057056427
            ],
            "mesh" : 0
        }
    ],
    "materials" : [
        {
            "name" : "Material.007",
            "pbrMetallicRoughness" : {
                "roughnessFactor" : 1,
                "metallicFactor" : 0,
                "baseColorTexture" : {
                    "texCoord" : 0,
                    "index" : 0
                }
            }
        },
        {
            "name" : "Material.008",
            "pbrMetallicRoughness" : {
                "roughnessFactor" : 1,
                "metallicFactor" : 0,
                "baseColorTexture" : {
                    "texCoord" : 0,
                    "index" : 1
                }
            }
        }
    ],
    "meshes" : [
        {
            "name" : "Cube",
            "primitives" : [
                {
                    "indices" : 3,
                    "material" : 0,
                    "attributes" : {
                        "POSITION" : 0,
                        "NORMAL" : 1,
                        "TEXCOORD_0" : 2
                    }
                },
                {
                    "indices" : 7,
                    "material" : 1,
                    "attributes" : {
                        "POSITION" : 4,
                        "NORMAL" : 5,
                        "TEXCOORD_0" : 6
                    }
                }
            ]
        }
    ],
    "textures" : [
        {
            "source" : 0
        },
        {
            "source" : 0
        }
    ],
    "images" : [
        {
            "name" : "ksiazka",
            "bufferView" : 4,
            "mimeType" : "image/png"
        }
    ],
    "accessors" : [
        {
            "componentType" : 5126,
            "type" : "VEC3",
            "max" : [
                1,
                1,
                1
            ],
            "min" : [
                -1.0798747539520264,
                -1,
                -1
            ],
            "count" : 116,
            "bufferView" : 0
        },
        {
            "count" : 116,
            "componentType" : 5126,
            "type" : "VEC3",
            "bufferView" : 1
        },
        {
            "count" : 116,
            "componentType" : 5126,
            "type" : "VEC2",
            "bufferView" : 2
        },
        {
            "count" : 282,
            "componentType" : 5123,
            "type" : "SCALAR",
            "bufferView" : 3
        },
        {
            "componentType" : 5126,
            "type" : "VEC3",
            "max" : [
                0.9779532551765442,
                0.6706669926643372,
                0.9767929315567017
            ],
            "min" : [
                -0.877953290939331,
                -0.6355732083320618,
                -0.9767929315567017
            ],
            "count" : 12,
            "bufferView" : 5
        },
        {
            "count" : 12,
            "componentType" : 5126,
            "type" : "VEC3",
            "bufferView" : 6
        },
        {
            "count" : 12,
            "componentType" : 5126,
            "type" : "VEC2",
            "bufferView" : 7
        },
        {
            "count" : 18,
            "componentType" : 5123,
            "type" : "SCALAR",
            "bufferView" : 8
        }
    ],
    "bufferViews" : [
        {
            "buffer" : 0,
            "byteLength" : 1392,
            "byteOffset" : 0
        },
        {
            "buffer" : 0,
            "byteLength" : 1392,
            "byteOffset" : 1392
        },
        {
            "buffer" : 0,
            "byteLength" : 928,
            "byteOffset" : 2784
        },
        {
            "buffer" : 0,
            "byteLength" : 564,
            "byteOffset" : 3712
        },
        {
            "buffer" : 0,
            "byteLength" : 52784,
            "byteOffset" : 4276
        },
        {
            "buffer" : 0,
            "byteLength" : 144,
            "byteOffset" : 57060
        },
        {
            "buffer" : 0,
            "byteLength" : 144,
            "byteOffset" : 57204
        },
        {
            "buffer" : 0,
            "byteLength" : 96,
            "byteOffset" : 57348
        },
        {
            "buffer" : 0,
            "byteLength" : 36,
            "byteOffset" : 57444
        }
    ],
    "buffers" : [
        {
            "byteLength" : 57480,
            "uri" : "data:application/octet-stream;base64,"
        }
    ]
}
