{
    "asset" : {
        "generator" : "Khronos glTF Blender I/O v1.2.20",
        "version" : "2.0"
    },
    "scene" : 0,
    "scenes" : [
        {
            "name" : "Scene",
            "nodes" : [
                0,
                1,
                2
            ]
        }
    ],
    "nodes" : [
        {
            "mesh" : 0,
            "name" : "Cube",
            "translation" : [
                0.013059234246611595,
                0.34015899896621704,
                0.09105606377124786
            ],
            "scale" : [
                0.7993690967559814,
                0.020094292238354683,
                0.0759306401014328
            ],
            "rotation" : [
                0,
                -1,
                0,
                -1.6292068494294654e-07
            ]
        },
        {
            "mesh" : 1,
            "name" : "Cylinder.002",
            "translation" : [
                -0.1003808081150055,
                0.5348004698753357,
                -0.9783151149749756
            ],
            "rotation" : [
                0,
                0,
                -0.9393289089202881,
                0.34301772713661194
            ]
        },
        {
            "mesh" : 2,
            "name" : "Swiatlo2",
            "translation" : [
                -0.1003808081150055,
                0.5348004698753357,
                -0.9783151149749756
            ],
            "rotation" : [
                0,
                0,
                -0.9393289089202881,
                0.34301772713661194
            ]
        }
    ],
    "materials" : [
        {
            "pbrMetallicRoughness" : {
                "metallicFactor" : 0,
                "baseColorTexture" : {
                    "texCoord" : 0,
                    "index" : 0
                },
                "roughnessFactor" : 1
            },
            "name" : "Material.001"
        },
        {
            "pbrMetallicRoughness" : {
                "metallicFactor" : 0,
                "baseColorTexture" : {
                    "texCoord" : 0,
                    "index" : 1
                },
                "roughnessFactor" : 1
            },
            "name" : "Material.006"
        },
        {
            "pbrMetallicRoughness" : {
                "metallicFactor" : 0,
                "baseColorTexture" : {
                    "texCoord" : 0,
                    "index" : 2
                },
                "roughnessFactor" : 1
            },
            "name" : "Material.004"
        },
        {
            "pbrMetallicRoughness" : {
                "metallicFactor" : 0,
                "baseColorTexture" : {
                    "texCoord" : 0,
                    "index" : 3
                },
                "roughnessFactor" : 1
            },
            "name" : "Material.003"
        },
        {
            "pbrMetallicRoughness" : {
                "baseColorFactor" : [
                    0.800000011920929,
                    0.800000011920929,
                    0.800000011920929,
                    1
                ],
                "metallicFactor" : 0,
                "roughnessFactor" : 1
            },
            "name" : "Material.002",
            "emissiveFactor" : [
                0.9822508096694946,
                0.630757212638855,
                0.2195262312889099
            ]
        }
    ],
    "meshes" : [
        {
            "primitives" : [
                {
                    "material" : 0,
                    "attributes" : {
                        "POSITION" : 0,
                        "TEXCOORD_0" : 1,
                        "NORMAL" : 2
                    },
                    "indices" : 3
                }
            ],
            "name" : "Cube.001"
        },
        {
            "primitives" : [
                {
                    "material" : 1,
                    "attributes" : {
                        "POSITION" : 4,
                        "TEXCOORD_0" : 5,
                        "NORMAL" : 6
                    },
                    "indices" : 7
                },
                {
                    "material" : 2,
                    "attributes" : {
                        "POSITION" : 8,
                        "TEXCOORD_0" : 9,
                        "NORMAL" : 10
                    },
                    "indices" : 11
                },
                {
                    "material" : 3,
                    "attributes" : {
                        "POSITION" : 12,
                        "TEXCOORD_0" : 13,
                        "NORMAL" : 14
                    },
                    "indices" : 15
                }
            ],
            "name" : "Cylinder.003"
        },
        {
            "primitives" : [
                {
                    "material" : 4,
                    "attributes" : {
                        "POSITION" : 16,
                        "TEXCOORD_0" : 17,
                        "NORMAL" : 18
                    },
                    "indices" : 19
                }
            ],
            "name" : "Cylinder.002"
        }
    ],
    "textures" : [
        {
            "source" : 0
        },
        {
            "source" : 1
        },
        {
            "source" : 1
        },
        {
            "source" : 1
        }
    ],
    "images" : [
        {
            "mimeType" : "image/png",
            "bufferView" : 4,
            "name" : "lodka2"
        },
        {
            "mimeType" : "image/png",
            "bufferView" : 9,
            "name" : "latarenka"
        }
    ],
    "accessors" : [
        {
            "min" : [
                -1.267323613166809,
                -16.92814064025879,
                -28.460277557373047
            ],
            "type" : "VEC3",
            "bufferView" : 0,
            "max" : [
                1.234649658203125,
                4.654359340667725,
                31.60348129272461
            ],
            "count" : 245,
            "componentType" : 5126
        },
        {
            "type" : "VEC2",
            "bufferView" : 1,
            "count" : 245,
            "componentType" : 5126
        },
        {
            "type" : "VEC3",
            "bufferView" : 2,
            "count" : 245,
            "componentType" : 5126
        },
        {
            "type" : "SCALAR",
            "bufferView" : 3,
            "count" : 585,
            "componentType" : 5123
        },
        {
            "min" : [
                -0.3485402464866638,
                -0.19222263991832733,
                -0.00912220124155283
            ],
            "type" : "VEC3",
            "bufferView" : 5,
            "max" : [
                0.00912220124155283,
                0.16528566181659698,
                0.009122341871261597
            ],
            "count" : 1191,
            "componentType" : 5126
        },
        {
            "type" : "VEC2",
            "bufferView" : 6,
            "count" : 1191,
            "componentType" : 5126
        },
        {
            "type" : "VEC3",
            "bufferView" : 7,
            "count" : 1191,
            "componentType" : 5126
        },
        {
            "type" : "SCALAR",
            "bufferView" : 8,
            "count" : 5544,
            "componentType" : 5123
        },
        {
            "min" : [
                -0.1863120198249817,
                0.00021541118621826172,
                -0.14341217279434204
            ],
            "type" : "VEC3",
            "bufferView" : 10,
            "max" : [
                0.2927205562591553,
                0.49642670154571533,
                0.14341217279434204
            ],
            "count" : 1179,
            "componentType" : 5126
        },
        {
            "type" : "VEC2",
            "bufferView" : 11,
            "count" : 1179,
            "componentType" : 5126
        },
        {
            "type" : "VEC3",
            "bufferView" : 12,
            "count" : 1179,
            "componentType" : 5126
        },
        {
            "type" : "SCALAR",
            "bufferView" : 13,
            "count" : 5088,
            "componentType" : 5123
        },
        {
            "min" : [
                -0.2112428992986679,
                -0.04186907410621643,
                -0.08339212089776993
            ],
            "type" : "VEC3",
            "bufferView" : 14,
            "max" : [
                0.009194418787956238,
                0.17311282455921173,
                0.08339212089776993
            ],
            "count" : 576,
            "componentType" : 5126
        },
        {
            "type" : "VEC2",
            "bufferView" : 15,
            "count" : 576,
            "componentType" : 5126
        },
        {
            "type" : "VEC3",
            "bufferView" : 16,
            "count" : 576,
            "componentType" : 5126
        },
        {
            "type" : "SCALAR",
            "bufferView" : 17,
            "count" : 1716,
            "componentType" : 5123
        },
        {
            "min" : [
                -0.11415383219718933,
                0.06446817517280579,
                -0.1066739484667778
            ],
            "type" : "VEC3",
            "bufferView" : 18,
            "max" : [
                0.14048174023628235,
                0.32875505089759827,
                0.10667386651039124
            ],
            "count" : 385,
            "componentType" : 5126
        },
        {
            "type" : "VEC2",
            "bufferView" : 19,
            "count" : 385,
            "componentType" : 5126
        },
        {
            "type" : "VEC3",
            "bufferView" : 20,
            "count" : 385,
            "componentType" : 5126
        },
        {
            "type" : "SCALAR",
            "bufferView" : 21,
            "count" : 1716,
            "componentType" : 5123
        }
    ],
    "bufferViews" : [
        {
            "byteLength" : 2940,
            "byteOffset" : 0,
            "buffer" : 0
        },
        {
            "byteLength" : 1960,
            "byteOffset" : 2940,
            "buffer" : 0
        },
        {
            "byteLength" : 2940,
            "byteOffset" : 4900,
            "buffer" : 0
        },
        {
            "byteLength" : 1170,
            "byteOffset" : 7840,
            "buffer" : 0
        },
        {
            "byteLength" : 36749,
            "byteOffset" : 9012,
            "buffer" : 0
        },
        {
            "byteLength" : 14292,
            "byteOffset" : 45764,
            "buffer" : 0
        },
        {
            "byteLength" : 9528,
            "byteOffset" : 60056,
            "buffer" : 0
        },
        {
            "byteLength" : 14292,
            "byteOffset" : 69584,
            "buffer" : 0
        },
        {
            "byteLength" : 11088,
            "byteOffset" : 83876,
            "buffer" : 0
        },
        {
            "byteLength" : 77228,
            "byteOffset" : 94964,
            "buffer" : 0
        },
        {
            "byteLength" : 14148,
            "byteOffset" : 172192,
            "buffer" : 0
        },
        {
            "byteLength" : 9432,
            "byteOffset" : 186340,
            "buffer" : 0
        },
        {
            "byteLength" : 14148,
            "byteOffset" : 195772,
            "buffer" : 0
        },
        {
            "byteLength" : 10176,
            "byteOffset" : 209920,
            "buffer" : 0
        },
        {
            "byteLength" : 6912,
            "byteOffset" : 220096,
            "buffer" : 0
        },
        {
            "byteLength" : 4608,
            "byteOffset" : 227008,
            "buffer" : 0
        },
        {
            "byteLength" : 6912,
            "byteOffset" : 231616,
            "buffer" : 0
        },
        {
            "byteLength" : 3432,
            "byteOffset" : 238528,
            "buffer" : 0
        },
        {
            "byteLength" : 4620,
            "byteOffset" : 241960,
            "buffer" : 0
        },
        {
            "byteLength" : 3080,
            "byteOffset" : 246580,
            "buffer" : 0
        },
        {
            "byteLength" : 4620,
            "byteOffset" : 249660,
            "buffer" : 0
        },
        {
            "byteLength" : 3432,
            "byteOffset" : 254280,
            "buffer" : 0
        }
    ],
    "buffers" : [
        {
            "byteLength" : 257712,
            "uri" : "data:application/octet-stream;base64,"
        }
    ]
}
