{
    "asset" : {
        "version" : "2.0",
        "generator" : "Khronos glTF Blender I/O v1.2.20"
    },
    "scene" : 0,
    "scenes" : [
        {
            "nodes" : [
                0
            ],
            "name" : "Scene"
        }
    ],
    "nodes" : [
        {
            "name" : "Cube.001",
            "mesh" : 0
        }
    ],
    "materials" : [
        {
            "pbrMetallicRoughness" : {
                "baseColorTexture" : {
                    "texCoord" : 0,
                    "index" : 0
                },
                "roughnessFactor" : 1,
                "metallicFactor" : 0
            },
            "name" : "Material.005"
        },
        {
            "pbrMetallicRoughness" : {
                "baseColorTexture" : {
                    "texCoord" : 0,
                    "index" : 1
                },
                "roughnessFactor" : 1,
                "metallicFactor" : 0
            },
            "name" : "Material.001"
        }
    ],
    "meshes" : [
        {
            "name" : "Cube.003",
            "primitives" : [
                {
                    "indices" : 3,
                    "material" : 0,
                    "attributes" : {
                        "TEXCOORD_0" : 0,
                        "POSITION" : 1,
                        "NORMAL" : 2
                    }
                },
                {
                    "indices" : 7,
                    "material" : 1,
                    "attributes" : {
                        "TEXCOORD_0" : 4,
                        "POSITION" : 5,
                        "NORMAL" : 6
                    }
                }
            ]
        }
    ],
    "textures" : [
        {
            "source" : 0
        },
        {
            "source" : 0
        }
    ],
    "images" : [
        {
            "bufferView" : 4,
            "mimeType" : "image/png",
            "name" : "mlotek"
        }
    ],
    "accessors" : [
        {
            "type" : "VEC2",
            "bufferView" : 0,
            "count" : 32,
            "componentType" : 5126
        },
        {
            "bufferView" : 1,
            "componentType" : 5126,
            "min" : [
                -0.7097805142402649,
                -0.04418894648551941,
                -1.3402773141860962
            ],
            "type" : "VEC3",
            "count" : 32,
            "max" : [
                0.8612608909606934,
                0.34408441185951233,
                -0.9505845308303833
            ]
        },
        {
            "type" : "VEC3",
            "bufferView" : 2,
            "count" : 32,
            "componentType" : 5126
        },
        {
            "type" : "SCALAR",
            "bufferView" : 3,
            "count" : 60,
            "componentType" : 5123
        },
        {
            "type" : "VEC2",
            "bufferView" : 5,
            "count" : 92,
            "componentType" : 5126
        },
        {
            "bufferView" : 6,
            "componentType" : 5126,
            "min" : [
                -0.17792075872421265,
                -0.02912437915802002,
                -1
            ],
            "type" : "VEC3",
            "count" : 92,
            "max" : [
                0.17792075872421265,
                0.32221519947052,
                1
            ]
        },
        {
            "type" : "VEC3",
            "bufferView" : 7,
            "count" : 92,
            "componentType" : 5126
        },
        {
            "type" : "SCALAR",
            "bufferView" : 8,
            "count" : 276,
            "componentType" : 5123
        }
    ],
    "bufferViews" : [
        {
            "byteOffset" : 0,
            "buffer" : 0,
            "byteLength" : 256
        },
        {
            "byteOffset" : 256,
            "buffer" : 0,
            "byteLength" : 384
        },
        {
            "byteOffset" : 640,
            "buffer" : 0,
            "byteLength" : 384
        },
        {
            "byteOffset" : 1024,
            "buffer" : 0,
            "byteLength" : 120
        },
        {
            "byteOffset" : 1144,
            "buffer" : 0,
            "byteLength" : 61561
        },
        {
            "byteOffset" : 62708,
            "buffer" : 0,
            "byteLength" : 736
        },
        {
            "byteOffset" : 63444,
            "buffer" : 0,
            "byteLength" : 1104
        },
        {
            "byteOffset" : 64548,
            "buffer" : 0,
            "byteLength" : 1104
        },
        {
            "byteOffset" : 65652,
            "buffer" : 0,
            "byteLength" : 552
        }
    ],
    "buffers" : [
        {
            "uri" : "data:application/octet-stream;base64,",
            "byteLength" : 66204
        }
    ]
}
