{
    "asset" : {
        "version" : "2.0",
        "generator" : "Khronos glTF Blender I/O v1.2.20"
    },
    "scene" : 0,
    "scenes" : [
        {
            "name" : "Scene",
            "nodes" : [
                0,
                1,
                2,
                3,
                4,
                5,
                6,
                7,
                8,
                9,
                10
            ]
        }
    ],
    "nodes" : [
        {
            "name" : "Cube.001",
            "mesh" : 0,
            "scale" : [
                1,
                1,
                2
            ],
            "translation" : [
                0,
                1.4499996900558472,
                -4.537930965423584
            ]
        },
        {
            "name" : "Icosphere.009",
            "mesh" : 1,
            "scale" : [
                0.3327268362045288,
                0.3327268362045288,
                0.3327268362045288
            ]
        },
        {
            "name" : "Icosphere.008",
            "mesh" : 2,
            "scale" : [
                0.3327268362045288,
                0.3327268362045288,
                0.3327268362045288
            ]
        },
        {
            "name" : "Icosphere.007",
            "mesh" : 3,
            "scale" : [
                0.3327268362045288,
                0.3327268362045288,
                0.3327268362045288
            ]
        },
        {
            "name" : "Icosphere.006",
            "mesh" : 4,
            "scale" : [
                0.3327268362045288,
                0.3327268362045288,
                0.3327268362045288
            ]
        },
        {
            "name" : "Icosphere.005",
            "mesh" : 5,
            "scale" : [
                0.3327268362045288,
                0.3327268362045288,
                0.3327268362045288
            ]
        },
        {
            "name" : "Icosphere.004",
            "mesh" : 6,
            "scale" : [
                0.3327268362045288,
                0.3327268362045288,
                0.3327268362045288
            ]
        },
        {
            "name" : "Icosphere.003",
            "mesh" : 7,
            "scale" : [
                0.3327268362045288,
                0.3327268362045288,
                0.3327268362045288
            ]
        },
        {
            "name" : "Icosphere.002",
            "mesh" : 8,
            "scale" : [
                0.3327268362045288,
                0.3327268362045288,
                0.3327268362045288
            ]
        },
        {
            "name" : "Icosphere.001",
            "mesh" : 9,
            "scale" : [
                0.3327268362045288,
                0.3327268362045288,
                0.3327268362045288
            ]
        },
        {
            "name" : "Icosphere",
            "mesh" : 10,
            "scale" : [
                0.3327268362045288,
                0.3327268362045288,
                0.3327268362045288
            ]
        }
    ],
    "materials" : [
        {
            "name" : "Material.017",
            "pbrMetallicRoughness" : {
                "baseColorTexture" : {
                    "index" : 0,
                    "texCoord" : 0
                },
                "metallicFactor" : 0,
                "roughnessFactor" : 1
            }
        },
        {
            "name" : "Material.018",
            "emissiveFactor" : [
                0,
                1,
                0.47556307911872864
            ],
            "pbrMetallicRoughness" : {}
        },
        {
            "name" : "Material.016",
            "emissiveFactor" : [
                1,
                0,
                0.0802198275923729
            ],
            "pbrMetallicRoughness" : {}
        },
        {
            "name" : "Material.015",
            "emissiveFactor" : [
                0.0006070540403015912,
                0,
                1
            ],
            "pbrMetallicRoughness" : {}
        },
        {
            "name" : "Material.014",
            "emissiveFactor" : [
                0.8900054693222046,
                0.8900054693222046,
                0.8900054693222046
            ],
            "pbrMetallicRoughness" : {}
        },
        {
            "name" : "Material.013",
            "emissiveFactor" : [
                0.2983361780643463,
                0.7874124050140381,
                0
            ],
            "pbrMetallicRoughness" : {}
        },
        {
            "name" : "Material.012",
            "emissiveFactor" : [
                0.913098931312561,
                1,
                0
            ],
            "pbrMetallicRoughness" : {}
        },
        {
            "name" : "Material.011",
            "emissiveFactor" : [
                1,
                0.42869052290916443,
                0
            ],
            "pbrMetallicRoughness" : {}
        },
        {
            "name" : "Material.010",
            "emissiveFactor" : [
                1,
                0,
                0.0012141080806031823
            ],
            "pbrMetallicRoughness" : {}
        },
        {
            "name" : "Material.009",
            "emissiveFactor" : [
                1,
                0,
                0.5711249709129333
            ],
            "pbrMetallicRoughness" : {}
        },
        {
            "name" : "Material.008",
            "emissiveFactor" : [
                0,
                0.47353148460388184,
                1
            ],
            "pbrMetallicRoughness" : {}
        }
    ],
    "meshes" : [
        {
            "name" : "Cube.001",
            "primitives" : [
                {
                    "material" : 0,
                    "indices" : 3,
                    "attributes" : {
                        "POSITION" : 0,
                        "TEXCOORD_0" : 1,
                        "NORMAL" : 2
                    }
                }
            ]
        },
        {
            "name" : "Icosphere.009",
            "primitives" : [
                {
                    "material" : 1,
                    "indices" : 7,
                    "attributes" : {
                        "POSITION" : 4,
                        "TEXCOORD_0" : 5,
                        "NORMAL" : 6
                    }
                }
            ]
        },
        {
            "name" : "Icosphere.008",
            "primitives" : [
                {
                    "material" : 2,
                    "indices" : 7,
                    "attributes" : {
                        "POSITION" : 8,
                        "TEXCOORD_0" : 9,
                        "NORMAL" : 10
                    }
                }
            ]
        },
        {
            "name" : "Icosphere.007",
            "primitives" : [
                {
                    "material" : 3,
                    "indices" : 7,
                    "attributes" : {
                        "POSITION" : 11,
                        "TEXCOORD_0" : 12,
                        "NORMAL" : 13
                    }
                }
            ]
        },
        {
            "name" : "Icosphere.006",
            "primitives" : [
                {
                    "material" : 4,
                    "indices" : 7,
                    "attributes" : {
                        "POSITION" : 14,
                        "TEXCOORD_0" : 15,
                        "NORMAL" : 16
                    }
                }
            ]
        },
        {
            "name" : "Icosphere.005",
            "primitives" : [
                {
                    "material" : 5,
                    "indices" : 7,
                    "attributes" : {
                        "POSITION" : 17,
                        "TEXCOORD_0" : 18,
                        "NORMAL" : 19
                    }
                }
            ]
        },
        {
            "name" : "Icosphere.004",
            "primitives" : [
                {
                    "material" : 6,
                    "indices" : 7,
                    "attributes" : {
                        "POSITION" : 20,
                        "TEXCOORD_0" : 21,
                        "NORMAL" : 22
                    }
                }
            ]
        },
        {
            "name" : "Icosphere.003",
            "primitives" : [
                {
                    "material" : 7,
                    "indices" : 7,
                    "attributes" : {
                        "POSITION" : 23,
                        "TEXCOORD_0" : 24,
                        "NORMAL" : 25
                    }
                }
            ]
        },
        {
            "name" : "Icosphere.002",
            "primitives" : [
                {
                    "material" : 8,
                    "indices" : 7,
                    "attributes" : {
                        "POSITION" : 26,
                        "TEXCOORD_0" : 27,
                        "NORMAL" : 28
                    }
                }
            ]
        },
        {
            "name" : "Icosphere.001",
            "primitives" : [
                {
                    "material" : 9,
                    "indices" : 7,
                    "attributes" : {
                        "POSITION" : 29,
                        "TEXCOORD_0" : 30,
                        "NORMAL" : 31
                    }
                }
            ]
        },
        {
            "name" : "Icosphere",
            "primitives" : [
                {
                    "material" : 10,
                    "indices" : 7,
                    "attributes" : {
                        "POSITION" : 32,
                        "TEXCOORD_0" : 33,
                        "NORMAL" : 34
                    }
                }
            ]
        }
    ],
    "textures" : [
        {
            "source" : 0
        }
    ],
    "images" : [
        {
            "mimeType" : "image/png",
            "name" : "ostatecznawersjaplis",
            "bufferView" : 4
        }
    ],
    "accessors" : [
        {
            "count" : 1080,
            "type" : "VEC3",
            "min" : [
                -1.5982532501220703,
                -1.424129843711853,
                -0.41978025436401367
            ],
            "bufferView" : 0,
            "componentType" : 5126,
            "max" : [
                1.6054726839065552,
                1.430418610572815,
                0.5395016670227051
            ]
        },
        {
            "count" : 1080,
            "componentType" : 5126,
            "type" : "VEC2",
            "bufferView" : 1
        },
        {
            "count" : 1080,
            "componentType" : 5126,
            "type" : "VEC3",
            "bufferView" : 2
        },
        {
            "count" : 1620,
            "componentType" : 5123,
            "type" : "SCALAR",
            "bufferView" : 3
        },
        {
            "count" : 240,
            "type" : "VEC3",
            "min" : [
                -0.9510578513145447,
                -1,
                -0.9999999403953552
            ],
            "bufferView" : 5,
            "componentType" : 5126,
            "max" : [
                0.9510578513145447,
                1,
                0.9999999403953552
            ]
        },
        {
            "count" : 240,
            "componentType" : 5126,
            "type" : "VEC2",
            "bufferView" : 6
        },
        {
            "count" : 240,
            "componentType" : 5126,
            "type" : "VEC3",
            "bufferView" : 7
        },
        {
            "count" : 240,
            "componentType" : 5123,
            "type" : "SCALAR",
            "bufferView" : 8
        },
        {
            "count" : 240,
            "type" : "VEC3",
            "min" : [
                -0.9510578513145447,
                -1,
                -0.9999999403953552
            ],
            "bufferView" : 9,
            "componentType" : 5126,
            "max" : [
                0.9510578513145447,
                1,
                0.9999999403953552
            ]
        },
        {
            "count" : 240,
            "componentType" : 5126,
            "type" : "VEC2",
            "bufferView" : 10
        },
        {
            "count" : 240,
            "componentType" : 5126,
            "type" : "VEC3",
            "bufferView" : 11
        },
        {
            "count" : 240,
            "type" : "VEC3",
            "min" : [
                -0.9510578513145447,
                -1,
                -0.9999999403953552
            ],
            "bufferView" : 12,
            "componentType" : 5126,
            "max" : [
                0.9510578513145447,
                1,
                0.9999999403953552
            ]
        },
        {
            "count" : 240,
            "componentType" : 5126,
            "type" : "VEC2",
            "bufferView" : 13
        },
        {
            "count" : 240,
            "componentType" : 5126,
            "type" : "VEC3",
            "bufferView" : 14
        },
        {
            "count" : 240,
            "type" : "VEC3",
            "min" : [
                -0.9510578513145447,
                -1,
                -0.9999999403953552
            ],
            "bufferView" : 15,
            "componentType" : 5126,
            "max" : [
                0.9510578513145447,
                1,
                0.9999999403953552
            ]
        },
        {
            "count" : 240,
            "componentType" : 5126,
            "type" : "VEC2",
            "bufferView" : 16
        },
        {
            "count" : 240,
            "componentType" : 5126,
            "type" : "VEC3",
            "bufferView" : 17
        },
        {
            "count" : 240,
            "type" : "VEC3",
            "min" : [
                -0.9510578513145447,
                -1,
                -0.9999999403953552
            ],
            "bufferView" : 18,
            "componentType" : 5126,
            "max" : [
                0.9510578513145447,
                1,
                0.9999999403953552
            ]
        },
        {
            "count" : 240,
            "componentType" : 5126,
            "type" : "VEC2",
            "bufferView" : 19
        },
        {
            "count" : 240,
            "componentType" : 5126,
            "type" : "VEC3",
            "bufferView" : 20
        },
        {
            "count" : 240,
            "type" : "VEC3",
            "min" : [
                -0.9510578513145447,
                -1,
                -0.9999999403953552
            ],
            "bufferView" : 21,
            "componentType" : 5126,
            "max" : [
                0.9510578513145447,
                1,
                0.9999999403953552
            ]
        },
        {
            "count" : 240,
            "componentType" : 5126,
            "type" : "VEC2",
            "bufferView" : 22
        },
        {
            "count" : 240,
            "componentType" : 5126,
            "type" : "VEC3",
            "bufferView" : 23
        },
        {
            "count" : 240,
            "type" : "VEC3",
            "min" : [
                -0.9510578513145447,
                -1,
                -0.9999999403953552
            ],
            "bufferView" : 24,
            "componentType" : 5126,
            "max" : [
                0.9510578513145447,
                1,
                0.9999999403953552
            ]
        },
        {
            "count" : 240,
            "componentType" : 5126,
            "type" : "VEC2",
            "bufferView" : 25
        },
        {
            "count" : 240,
            "componentType" : 5126,
            "type" : "VEC3",
            "bufferView" : 26
        },
        {
            "count" : 240,
            "type" : "VEC3",
            "min" : [
                -0.9510578513145447,
                -1,
                -0.9999999403953552
            ],
            "bufferView" : 27,
            "componentType" : 5126,
            "max" : [
                0.9510578513145447,
                1,
                0.9999999403953552
            ]
        },
        {
            "count" : 240,
            "componentType" : 5126,
            "type" : "VEC2",
            "bufferView" : 28
        },
        {
            "count" : 240,
            "componentType" : 5126,
            "type" : "VEC3",
            "bufferView" : 29
        },
        {
            "count" : 240,
            "type" : "VEC3",
            "min" : [
                -0.9510578513145447,
                -1,
                -0.9999999403953552
            ],
            "bufferView" : 30,
            "componentType" : 5126,
            "max" : [
                0.9510578513145447,
                1,
                0.9999999403953552
            ]
        },
        {
            "count" : 240,
            "componentType" : 5126,
            "type" : "VEC2",
            "bufferView" : 31
        },
        {
            "count" : 240,
            "componentType" : 5126,
            "type" : "VEC3",
            "bufferView" : 32
        },
        {
            "count" : 240,
            "type" : "VEC3",
            "min" : [
                -0.9510578513145447,
                -1,
                -0.9999999403953552
            ],
            "bufferView" : 33,
            "componentType" : 5126,
            "max" : [
                0.9510578513145447,
                1,
                0.9999999403953552
            ]
        },
        {
            "count" : 240,
            "componentType" : 5126,
            "type" : "VEC2",
            "bufferView" : 34
        },
        {
            "count" : 240,
            "componentType" : 5126,
            "type" : "VEC3",
            "bufferView" : 35
        }
    ],
    "bufferViews" : [
        {
            "buffer" : 0,
            "byteOffset" : 0,
            "byteLength" : 12960
        },
        {
            "buffer" : 0,
            "byteOffset" : 12960,
            "byteLength" : 8640
        },
        {
            "buffer" : 0,
            "byteOffset" : 21600,
            "byteLength" : 12960
        },
        {
            "buffer" : 0,
            "byteOffset" : 34560,
            "byteLength" : 3240
        },
        {
            "buffer" : 0,
            "byteOffset" : 37800,
            "byteLength" : 34142
        },
        {
            "buffer" : 0,
            "byteOffset" : 71944,
            "byteLength" : 2880
        },
        {
            "buffer" : 0,
            "byteOffset" : 74824,
            "byteLength" : 1920
        },
        {
            "buffer" : 0,
            "byteOffset" : 76744,
            "byteLength" : 2880
        },
        {
            "buffer" : 0,
            "byteOffset" : 79624,
            "byteLength" : 480
        },
        {
            "buffer" : 0,
            "byteOffset" : 80104,
            "byteLength" : 2880
        },
        {
            "buffer" : 0,
            "byteOffset" : 82984,
            "byteLength" : 1920
        },
        {
            "buffer" : 0,
            "byteOffset" : 84904,
            "byteLength" : 2880
        },
        {
            "buffer" : 0,
            "byteOffset" : 87784,
            "byteLength" : 2880
        },
        {
            "buffer" : 0,
            "byteOffset" : 90664,
            "byteLength" : 1920
        },
        {
            "buffer" : 0,
            "byteOffset" : 92584,
            "byteLength" : 2880
        },
        {
            "buffer" : 0,
            "byteOffset" : 95464,
            "byteLength" : 2880
        },
        {
            "buffer" : 0,
            "byteOffset" : 98344,
            "byteLength" : 1920
        },
        {
            "buffer" : 0,
            "byteOffset" : 100264,
            "byteLength" : 2880
        },
        {
            "buffer" : 0,
            "byteOffset" : 103144,
            "byteLength" : 2880
        },
        {
            "buffer" : 0,
            "byteOffset" : 106024,
            "byteLength" : 1920
        },
        {
            "buffer" : 0,
            "byteOffset" : 107944,
            "byteLength" : 2880
        },
        {
            "buffer" : 0,
            "byteOffset" : 110824,
            "byteLength" : 2880
        },
        {
            "buffer" : 0,
            "byteOffset" : 113704,
            "byteLength" : 1920
        },
        {
            "buffer" : 0,
            "byteOffset" : 115624,
            "byteLength" : 2880
        },
        {
            "buffer" : 0,
            "byteOffset" : 118504,
            "byteLength" : 2880
        },
        {
            "buffer" : 0,
            "byteOffset" : 121384,
            "byteLength" : 1920
        },
        {
            "buffer" : 0,
            "byteOffset" : 123304,
            "byteLength" : 2880
        },
        {
            "buffer" : 0,
            "byteOffset" : 126184,
            "byteLength" : 2880
        },
        {
            "buffer" : 0,
            "byteOffset" : 129064,
            "byteLength" : 1920
        },
        {
            "buffer" : 0,
            "byteOffset" : 130984,
            "byteLength" : 2880
        },
        {
            "buffer" : 0,
            "byteOffset" : 133864,
            "byteLength" : 2880
        },
        {
            "buffer" : 0,
            "byteOffset" : 136744,
            "byteLength" : 1920
        },
        {
            "buffer" : 0,
            "byteOffset" : 138664,
            "byteLength" : 2880
        },
        {
            "buffer" : 0,
            "byteOffset" : 141544,
            "byteLength" : 2880
        },
        {
            "buffer" : 0,
            "byteOffset" : 144424,
            "byteLength" : 1920
        },
        {
            "buffer" : 0,
            "byteOffset" : 146344,
            "byteLength" : 2880
        }
    ],
    "buffers" : [
        {
            "byteLength" : 149224,
            "uri" : "data:application/octet-stream;base64,"
        }
    ]
}
