{
    "asset" : {
        "version" : "2.0",
        "generator" : "Khronos glTF Blender I/O v1.2.20"
    },
    "scene" : 0,
    "scenes" : [
        {
            "name" : "Scene",
            "nodes" : [
                0,
                1,
                2,
                3,
                4,
                5,
                6,
                7,
                8,
                9,
                10
            ]
        }
    ],
    "nodes" : [
        {
            "name" : "Cube.002",
            "mesh" : 0,
            "translation" : [
                0,
                1.4499996900558472,
                -4.000000953674316
            ]
        },
        {
            "scale" : [
                0.3327268362045288,
                0.3327268362045288,
                0.3327268362045288
            ],
            "name" : "Icosphere.009",
            "mesh" : 1
        },
        {
            "scale" : [
                0.3327268362045288,
                0.3327268362045288,
                0.3327268362045288
            ],
            "name" : "Icosphere.008",
            "mesh" : 2
        },
        {
            "scale" : [
                0.3327268362045288,
                0.3327268362045288,
                0.3327268362045288
            ],
            "name" : "Icosphere.007",
            "mesh" : 3
        },
        {
            "scale" : [
                0.3327268362045288,
                0.3327268362045288,
                0.3327268362045288
            ],
            "name" : "Icosphere.006",
            "mesh" : 4
        },
        {
            "scale" : [
                0.3327268362045288,
                0.3327268362045288,
                0.3327268362045288
            ],
            "name" : "Icosphere.005",
            "mesh" : 5
        },
        {
            "scale" : [
                0.3327268362045288,
                0.3327268362045288,
                0.3327268362045288
            ],
            "name" : "Icosphere.004",
            "mesh" : 6
        },
        {
            "scale" : [
                0.3327268362045288,
                0.3327268362045288,
                0.3327268362045288
            ],
            "name" : "Icosphere.003",
            "mesh" : 7
        },
        {
            "scale" : [
                0.3327268362045288,
                0.3327268362045288,
                0.3327268362045288
            ],
            "name" : "Icosphere.002",
            "mesh" : 8
        },
        {
            "scale" : [
                0.3327268362045288,
                0.3327268362045288,
                0.3327268362045288
            ],
            "name" : "Icosphere.001",
            "mesh" : 9
        },
        {
            "scale" : [
                0.3327268362045288,
                0.3327268362045288,
                0.3327268362045288
            ],
            "name" : "Icosphere",
            "mesh" : 10
        }
    ],
    "materials" : [
        {
            "name" : "Material.017",
            "pbrMetallicRoughness" : {
                "metallicFactor" : 0,
                "baseColorTexture" : {
                    "index" : 0,
                    "texCoord" : 0
                },
                "roughnessFactor" : 1
            }
        },
        {
            "name" : "Material.018",
            "emissiveFactor" : [
                0,
                1,
                0.47556307911872864
            ],
            "pbrMetallicRoughness" : {}
        },
        {
            "name" : "Material.016",
            "emissiveFactor" : [
                1,
                0,
                0.0802198275923729
            ],
            "pbrMetallicRoughness" : {}
        },
        {
            "name" : "Material.015",
            "emissiveFactor" : [
                0.0006070540403015912,
                0,
                1
            ],
            "pbrMetallicRoughness" : {}
        },
        {
            "name" : "Material.014",
            "emissiveFactor" : [
                0.8900054693222046,
                0.8900054693222046,
                0.8900054693222046
            ],
            "pbrMetallicRoughness" : {}
        },
        {
            "name" : "Material.013",
            "emissiveFactor" : [
                0.2983361780643463,
                0.7874124050140381,
                0
            ],
            "pbrMetallicRoughness" : {}
        },
        {
            "name" : "Material.012",
            "emissiveFactor" : [
                0.913098931312561,
                1,
                0
            ],
            "pbrMetallicRoughness" : {}
        },
        {
            "name" : "Material.011",
            "emissiveFactor" : [
                1,
                0.42869052290916443,
                0
            ],
            "pbrMetallicRoughness" : {}
        },
        {
            "name" : "Material.010",
            "emissiveFactor" : [
                1,
                0,
                0.0012141080806031823
            ],
            "pbrMetallicRoughness" : {}
        },
        {
            "name" : "Material.009",
            "emissiveFactor" : [
                1,
                0,
                0.5711249709129333
            ],
            "pbrMetallicRoughness" : {}
        },
        {
            "name" : "Material.008",
            "emissiveFactor" : [
                0,
                0.47353148460388184,
                1
            ],
            "pbrMetallicRoughness" : {}
        }
    ],
    "meshes" : [
        {
            "name" : "Cube.013",
            "primitives" : [
                {
                    "material" : 0,
                    "indices" : 3,
                    "attributes" : {
                        "NORMAL" : 0,
                        "TEXCOORD_0" : 1,
                        "POSITION" : 2
                    }
                }
            ]
        },
        {
            "name" : "Icosphere.009",
            "primitives" : [
                {
                    "material" : 1,
                    "indices" : 7,
                    "attributes" : {
                        "NORMAL" : 4,
                        "TEXCOORD_0" : 5,
                        "POSITION" : 6
                    }
                }
            ]
        },
        {
            "name" : "Icosphere.008",
            "primitives" : [
                {
                    "material" : 2,
                    "indices" : 7,
                    "attributes" : {
                        "NORMAL" : 8,
                        "TEXCOORD_0" : 9,
                        "POSITION" : 10
                    }
                }
            ]
        },
        {
            "name" : "Icosphere.007",
            "primitives" : [
                {
                    "material" : 3,
                    "indices" : 7,
                    "attributes" : {
                        "NORMAL" : 11,
                        "TEXCOORD_0" : 12,
                        "POSITION" : 13
                    }
                }
            ]
        },
        {
            "name" : "Icosphere.006",
            "primitives" : [
                {
                    "material" : 4,
                    "indices" : 7,
                    "attributes" : {
                        "NORMAL" : 14,
                        "TEXCOORD_0" : 15,
                        "POSITION" : 16
                    }
                }
            ]
        },
        {
            "name" : "Icosphere.005",
            "primitives" : [
                {
                    "material" : 5,
                    "indices" : 7,
                    "attributes" : {
                        "NORMAL" : 17,
                        "TEXCOORD_0" : 18,
                        "POSITION" : 19
                    }
                }
            ]
        },
        {
            "name" : "Icosphere.004",
            "primitives" : [
                {
                    "material" : 6,
                    "indices" : 7,
                    "attributes" : {
                        "NORMAL" : 20,
                        "TEXCOORD_0" : 21,
                        "POSITION" : 22
                    }
                }
            ]
        },
        {
            "name" : "Icosphere.003",
            "primitives" : [
                {
                    "material" : 7,
                    "indices" : 7,
                    "attributes" : {
                        "NORMAL" : 23,
                        "TEXCOORD_0" : 24,
                        "POSITION" : 25
                    }
                }
            ]
        },
        {
            "name" : "Icosphere.002",
            "primitives" : [
                {
                    "material" : 8,
                    "indices" : 7,
                    "attributes" : {
                        "NORMAL" : 26,
                        "TEXCOORD_0" : 27,
                        "POSITION" : 28
                    }
                }
            ]
        },
        {
            "name" : "Icosphere.001",
            "primitives" : [
                {
                    "material" : 9,
                    "indices" : 7,
                    "attributes" : {
                        "NORMAL" : 29,
                        "TEXCOORD_0" : 30,
                        "POSITION" : 31
                    }
                }
            ]
        },
        {
            "name" : "Icosphere",
            "primitives" : [
                {
                    "material" : 10,
                    "indices" : 7,
                    "attributes" : {
                        "NORMAL" : 32,
                        "TEXCOORD_0" : 33,
                        "POSITION" : 34
                    }
                }
            ]
        }
    ],
    "textures" : [
        {
            "source" : 0
        }
    ],
    "images" : [
        {
            "mimeType" : "image/png",
            "name" : "arrayregalpoprawka",
            "bufferView" : 4
        }
    ],
    "accessors" : [
        {
            "type" : "VEC3",
            "componentType" : 5126,
            "bufferView" : 0,
            "count" : 1080
        },
        {
            "type" : "VEC2",
            "componentType" : 5126,
            "bufferView" : 1,
            "count" : 1080
        },
        {
            "max" : [
                1.6054726839065552,
                1.430418610572815,
                0.5395016670227051
            ],
            "componentType" : 5126,
            "bufferView" : 2,
            "count" : 1080,
            "type" : "VEC3",
            "min" : [
                -1.5982532501220703,
                -1.424129843711853,
                -0.41978025436401367
            ]
        },
        {
            "type" : "SCALAR",
            "componentType" : 5123,
            "bufferView" : 3,
            "count" : 1620
        },
        {
            "type" : "VEC3",
            "componentType" : 5126,
            "bufferView" : 5,
            "count" : 240
        },
        {
            "type" : "VEC2",
            "componentType" : 5126,
            "bufferView" : 6,
            "count" : 240
        },
        {
            "max" : [
                0.9510578513145447,
                1,
                0.9999999403953552
            ],
            "componentType" : 5126,
            "bufferView" : 7,
            "count" : 240,
            "type" : "VEC3",
            "min" : [
                -0.9510578513145447,
                -1,
                -0.9999999403953552
            ]
        },
        {
            "type" : "SCALAR",
            "componentType" : 5123,
            "bufferView" : 8,
            "count" : 240
        },
        {
            "type" : "VEC3",
            "componentType" : 5126,
            "bufferView" : 9,
            "count" : 240
        },
        {
            "type" : "VEC2",
            "componentType" : 5126,
            "bufferView" : 10,
            "count" : 240
        },
        {
            "max" : [
                0.9510578513145447,
                1,
                0.9999999403953552
            ],
            "componentType" : 5126,
            "bufferView" : 11,
            "count" : 240,
            "type" : "VEC3",
            "min" : [
                -0.9510578513145447,
                -1,
                -0.9999999403953552
            ]
        },
        {
            "type" : "VEC3",
            "componentType" : 5126,
            "bufferView" : 12,
            "count" : 240
        },
        {
            "type" : "VEC2",
            "componentType" : 5126,
            "bufferView" : 13,
            "count" : 240
        },
        {
            "max" : [
                0.9510578513145447,
                1,
                0.9999999403953552
            ],
            "componentType" : 5126,
            "bufferView" : 14,
            "count" : 240,
            "type" : "VEC3",
            "min" : [
                -0.9510578513145447,
                -1,
                -0.9999999403953552
            ]
        },
        {
            "type" : "VEC3",
            "componentType" : 5126,
            "bufferView" : 15,
            "count" : 240
        },
        {
            "type" : "VEC2",
            "componentType" : 5126,
            "bufferView" : 16,
            "count" : 240
        },
        {
            "max" : [
                0.9510578513145447,
                1,
                0.9999999403953552
            ],
            "componentType" : 5126,
            "bufferView" : 17,
            "count" : 240,
            "type" : "VEC3",
            "min" : [
                -0.9510578513145447,
                -1,
                -0.9999999403953552
            ]
        },
        {
            "type" : "VEC3",
            "componentType" : 5126,
            "bufferView" : 18,
            "count" : 240
        },
        {
            "type" : "VEC2",
            "componentType" : 5126,
            "bufferView" : 19,
            "count" : 240
        },
        {
            "max" : [
                0.9510578513145447,
                1,
                0.9999999403953552
            ],
            "componentType" : 5126,
            "bufferView" : 20,
            "count" : 240,
            "type" : "VEC3",
            "min" : [
                -0.9510578513145447,
                -1,
                -0.9999999403953552
            ]
        },
        {
            "type" : "VEC3",
            "componentType" : 5126,
            "bufferView" : 21,
            "count" : 240
        },
        {
            "type" : "VEC2",
            "componentType" : 5126,
            "bufferView" : 22,
            "count" : 240
        },
        {
            "max" : [
                0.9510578513145447,
                1,
                0.9999999403953552
            ],
            "componentType" : 5126,
            "bufferView" : 23,
            "count" : 240,
            "type" : "VEC3",
            "min" : [
                -0.9510578513145447,
                -1,
                -0.9999999403953552
            ]
        },
        {
            "type" : "VEC3",
            "componentType" : 5126,
            "bufferView" : 24,
            "count" : 240
        },
        {
            "type" : "VEC2",
            "componentType" : 5126,
            "bufferView" : 25,
            "count" : 240
        },
        {
            "max" : [
                0.9510578513145447,
                1,
                0.9999999403953552
            ],
            "componentType" : 5126,
            "bufferView" : 26,
            "count" : 240,
            "type" : "VEC3",
            "min" : [
                -0.9510578513145447,
                -1,
                -0.9999999403953552
            ]
        },
        {
            "type" : "VEC3",
            "componentType" : 5126,
            "bufferView" : 27,
            "count" : 240
        },
        {
            "type" : "VEC2",
            "componentType" : 5126,
            "bufferView" : 28,
            "count" : 240
        },
        {
            "max" : [
                0.9510578513145447,
                1,
                0.9999999403953552
            ],
            "componentType" : 5126,
            "bufferView" : 29,
            "count" : 240,
            "type" : "VEC3",
            "min" : [
                -0.9510578513145447,
                -1,
                -0.9999999403953552
            ]
        },
        {
            "type" : "VEC3",
            "componentType" : 5126,
            "bufferView" : 30,
            "count" : 240
        },
        {
            "type" : "VEC2",
            "componentType" : 5126,
            "bufferView" : 31,
            "count" : 240
        },
        {
            "max" : [
                0.9510578513145447,
                1,
                0.9999999403953552
            ],
            "componentType" : 5126,
            "bufferView" : 32,
            "count" : 240,
            "type" : "VEC3",
            "min" : [
                -0.9510578513145447,
                -1,
                -0.9999999403953552
            ]
        },
        {
            "type" : "VEC3",
            "componentType" : 5126,
            "bufferView" : 33,
            "count" : 240
        },
        {
            "type" : "VEC2",
            "componentType" : 5126,
            "bufferView" : 34,
            "count" : 240
        },
        {
            "max" : [
                0.9510578513145447,
                1,
                0.9999999403953552
            ],
            "componentType" : 5126,
            "bufferView" : 35,
            "count" : 240,
            "type" : "VEC3",
            "min" : [
                -0.9510578513145447,
                -1,
                -0.9999999403953552
            ]
        }
    ],
    "bufferViews" : [
        {
            "byteLength" : 12960,
            "buffer" : 0,
            "byteOffset" : 0
        },
        {
            "byteLength" : 8640,
            "buffer" : 0,
            "byteOffset" : 12960
        },
        {
            "byteLength" : 12960,
            "buffer" : 0,
            "byteOffset" : 21600
        },
        {
            "byteLength" : 3240,
            "buffer" : 0,
            "byteOffset" : 34560
        },
        {
            "byteLength" : 34421,
            "buffer" : 0,
            "byteOffset" : 37800
        },
        {
            "byteLength" : 2880,
            "buffer" : 0,
            "byteOffset" : 72224
        },
        {
            "byteLength" : 1920,
            "buffer" : 0,
            "byteOffset" : 75104
        },
        {
            "byteLength" : 2880,
            "buffer" : 0,
            "byteOffset" : 77024
        },
        {
            "byteLength" : 480,
            "buffer" : 0,
            "byteOffset" : 79904
        },
        {
            "byteLength" : 2880,
            "buffer" : 0,
            "byteOffset" : 80384
        },
        {
            "byteLength" : 1920,
            "buffer" : 0,
            "byteOffset" : 83264
        },
        {
            "byteLength" : 2880,
            "buffer" : 0,
            "byteOffset" : 85184
        },
        {
            "byteLength" : 2880,
            "buffer" : 0,
            "byteOffset" : 88064
        },
        {
            "byteLength" : 1920,
            "buffer" : 0,
            "byteOffset" : 90944
        },
        {
            "byteLength" : 2880,
            "buffer" : 0,
            "byteOffset" : 92864
        },
        {
            "byteLength" : 2880,
            "buffer" : 0,
            "byteOffset" : 95744
        },
        {
            "byteLength" : 1920,
            "buffer" : 0,
            "byteOffset" : 98624
        },
        {
            "byteLength" : 2880,
            "buffer" : 0,
            "byteOffset" : 100544
        },
        {
            "byteLength" : 2880,
            "buffer" : 0,
            "byteOffset" : 103424
        },
        {
            "byteLength" : 1920,
            "buffer" : 0,
            "byteOffset" : 106304
        },
        {
            "byteLength" : 2880,
            "buffer" : 0,
            "byteOffset" : 108224
        },
        {
            "byteLength" : 2880,
            "buffer" : 0,
            "byteOffset" : 111104
        },
        {
            "byteLength" : 1920,
            "buffer" : 0,
            "byteOffset" : 113984
        },
        {
            "byteLength" : 2880,
            "buffer" : 0,
            "byteOffset" : 115904
        },
        {
            "byteLength" : 2880,
            "buffer" : 0,
            "byteOffset" : 118784
        },
        {
            "byteLength" : 1920,
            "buffer" : 0,
            "byteOffset" : 121664
        },
        {
            "byteLength" : 2880,
            "buffer" : 0,
            "byteOffset" : 123584
        },
        {
            "byteLength" : 2880,
            "buffer" : 0,
            "byteOffset" : 126464
        },
        {
            "byteLength" : 1920,
            "buffer" : 0,
            "byteOffset" : 129344
        },
        {
            "byteLength" : 2880,
            "buffer" : 0,
            "byteOffset" : 131264
        },
        {
            "byteLength" : 2880,
            "buffer" : 0,
            "byteOffset" : 134144
        },
        {
            "byteLength" : 1920,
            "buffer" : 0,
            "byteOffset" : 137024
        },
        {
            "byteLength" : 2880,
            "buffer" : 0,
            "byteOffset" : 138944
        },
        {
            "byteLength" : 2880,
            "buffer" : 0,
            "byteOffset" : 141824
        },
        {
            "byteLength" : 1920,
            "buffer" : 0,
            "byteOffset" : 144704
        },
        {
            "byteLength" : 2880,
            "buffer" : 0,
            "byteOffset" : 146624
        }
    ],
    "buffers" : [
        {
            "byteLength" : 149504,
            "uri" : "data:application/octet-stream;base64,"
        }
    ]
}
