{
    "asset" : {
        "generator" : "Khronos glTF Blender I/O v1.2.20",
        "version" : "2.0"
    },
    "scene" : 0,
    "scenes" : [
        {
            "name" : "Scene",
            "nodes" : [
                0,
                1,
                2
            ]
        }
    ],
    "nodes" : [
        {
            "name" : "Cube.014",
            "scale" : [
                0.6124697327613831,
                0.11402793228626251,
                0.6124697327613831
            ],
            "translation" : [
                -0.013599932193756104,
                3.897996187210083,
                1.1574900150299072
            ],
            "mesh" : 0
        },
        {
            "name" : "Cylinder.001",
            "rotation" : [
                0.5,
                -0.5,
                -0.4999999701976776,
                0.5
            ],
            "scale" : [
                0.019719108939170837,
                -0.05507337301969528,
                0.019719108939170837
            ],
            "mesh" : 1,
            "translation" : [
                1.6748379468917847,
                3.3660948276519775,
                -3.208104372024536
            ]
        },
        {
            "name" : "sciany",
            "scale" : [
                4.498690128326416,
                2,
                3.276711940765381
            ],
            "translation" : [
                0,
                2.140345335006714,
                0
            ],
            "mesh" : 2
        }
    ],
    "materials" : [
        {
            "name" : "Material.027",
            "pbrMetallicRoughness" : {}
        },
        {
            "name" : "Material.028",
            "pbrMetallicRoughness" : {
                "baseColorFactor" : [
                    0.8941043615341187,
                    0.9004181623458862,
                    1,
                    1
                ],
                "roughnessFactor" : 1,
                "metallicFactor" : 0
            }
        },
        {
            "name" : "Material.034",
            "pbrMetallicRoughness" : {
                "roughnessFactor" : 1,
                "metallicFactor" : 0,
                "baseColorTexture" : {
                    "texCoord" : 0,
                    "index" : 0
                }
            }
        },
        {
            "name" : "Material.008",
            "pbrMetallicRoughness" : {
                "roughnessFactor" : 1,
                "metallicFactor" : 0,
                "baseColorTexture" : {
                    "texCoord" : 0,
                    "index" : 1
                }
            }
        },
        {
            "name" : "Material.009",
            "pbrMetallicRoughness" : {
                "roughnessFactor" : 1,
                "metallicFactor" : 0,
                "baseColorTexture" : {
                    "texCoord" : 0,
                    "index" : 2
                }
            }
        },
        {
            "name" : "Material.011",
            "pbrMetallicRoughness" : {
                "roughnessFactor" : 1,
                "metallicFactor" : 0,
                "baseColorTexture" : {
                    "texCoord" : 0,
                    "index" : 3
                }
            }
        },
        {
            "name" : "Material.026",
            "pbrMetallicRoughness" : {
                "roughnessFactor" : 1,
                "metallicFactor" : 0,
                "baseColorTexture" : {
                    "texCoord" : 0,
                    "index" : 4
                }
            }
        }
    ],
    "meshes" : [
        {
            "name" : "Cube.018",
            "primitives" : [
                {
                    "indices" : 2,
                    "attributes" : {
                        "NORMAL" : 0,
                        "POSITION" : 1
                    },
                    "material" : 0
                },
                {
                    "indices" : 5,
                    "attributes" : {
                        "NORMAL" : 3,
                        "POSITION" : 4
                    },
                    "material" : 1
                }
            ]
        },
        {
            "name" : "Cylinder.001",
            "primitives" : [
                {
                    "indices" : 9,
                    "attributes" : {
                        "NORMAL" : 6,
                        "POSITION" : 7,
                        "TEXCOORD_0" : 8
                    },
                    "material" : 2
                }
            ]
        },
        {
            "name" : "Cube",
            "primitives" : [
                {
                    "indices" : 13,
                    "attributes" : {
                        "NORMAL" : 10,
                        "POSITION" : 11,
                        "TEXCOORD_0" : 12
                    },
                    "material" : 3
                },
                {
                    "indices" : 17,
                    "attributes" : {
                        "NORMAL" : 14,
                        "POSITION" : 15,
                        "TEXCOORD_0" : 16
                    },
                    "material" : 4
                },
                {
                    "indices" : 21,
                    "attributes" : {
                        "NORMAL" : 18,
                        "POSITION" : 19,
                        "TEXCOORD_0" : 20
                    },
                    "material" : 5
                },
                {
                    "indices" : 25,
                    "attributes" : {
                        "NORMAL" : 22,
                        "POSITION" : 23,
                        "TEXCOORD_0" : 24
                    },
                    "material" : 6
                }
            ]
        }
    ],
    "textures" : [
        {
            "source" : 0
        },
        {
            "source" : 1
        },
        {
            "source" : 1
        },
        {
            "source" : 1
        },
        {
            "source" : 1
        }
    ],
    "images" : [
        {
            "name" : "uchwytzaslony",
            "bufferView" : 10,
            "mimeType" : "image/png"
        },
        {
            "name" : "sciana2",
            "bufferView" : 15,
            "mimeType" : "image/png"
        }
    ],
    "accessors" : [
        {
            "bufferView" : 0,
            "componentType" : 5126,
            "type" : "VEC3",
            "count" : 849
        },
        {
            "min" : [
                -0.921875,
                -1.3293626308441162,
                -0.921875
            ],
            "bufferView" : 1,
            "componentType" : 5126,
            "type" : "VEC3",
            "max" : [
                0.921875,
                0.6706373691558838,
                0.921875
            ],
            "count" : 849
        },
        {
            "bufferView" : 2,
            "componentType" : 5123,
            "type" : "SCALAR",
            "count" : 4992
        },
        {
            "bufferView" : 3,
            "componentType" : 5126,
            "type" : "VEC3",
            "count" : 113
        },
        {
            "min" : [
                -0.7188584208488464,
                -1,
                -0.7188584208488464
            ],
            "bufferView" : 4,
            "componentType" : 5126,
            "type" : "VEC3",
            "max" : [
                0.7188584208488464,
                -1,
                0.7188584208488464
            ],
            "count" : 113
        },
        {
            "bufferView" : 5,
            "componentType" : 5123,
            "type" : "SCALAR",
            "count" : 576
        },
        {
            "bufferView" : 6,
            "componentType" : 5126,
            "type" : "VEC3",
            "count" : 408
        },
        {
            "min" : [
                -1.6409839391708374,
                -1.546722650527954,
                -119.29020690917969
            ],
            "bufferView" : 7,
            "componentType" : 5126,
            "type" : "VEC3",
            "max" : [
                1.6409839391708374,
                1,
                8.149978637695312
            ],
            "count" : 408
        },
        {
            "bufferView" : 8,
            "componentType" : 5126,
            "type" : "VEC2",
            "count" : 408
        },
        {
            "bufferView" : 9,
            "componentType" : 5123,
            "type" : "SCALAR",
            "count" : 1116
        },
        {
            "bufferView" : 11,
            "componentType" : 5126,
            "type" : "VEC3",
            "count" : 55
        },
        {
            "min" : [
                -1.000000238418579,
                -1,
                -1.0000003576278687
            ],
            "bufferView" : 12,
            "componentType" : 5126,
            "type" : "VEC3",
            "max" : [
                1,
                -0.8142792582511902,
                1
            ],
            "count" : 55
        },
        {
            "bufferView" : 13,
            "componentType" : 5126,
            "type" : "VEC2",
            "count" : 55
        },
        {
            "bufferView" : 14,
            "componentType" : 5123,
            "type" : "SCALAR",
            "count" : 87
        },
        {
            "bufferView" : 16,
            "componentType" : 5126,
            "type" : "VEC3",
            "count" : 295
        },
        {
            "min" : [
                -1.0000003576278687,
                -1.005071759223938,
                -1.0005773305892944
            ],
            "bufferView" : 17,
            "componentType" : 5126,
            "type" : "VEC3",
            "max" : [
                1.0000004768371582,
                0.9249986410140991,
                1.0000005960464478
            ],
            "count" : 295
        },
        {
            "bufferView" : 18,
            "componentType" : 5126,
            "type" : "VEC2",
            "count" : 295
        },
        {
            "bufferView" : 19,
            "componentType" : 5123,
            "type" : "SCALAR",
            "count" : 489
        },
        {
            "bufferView" : 20,
            "componentType" : 5126,
            "type" : "VEC3",
            "count" : 6
        },
        {
            "min" : [
                -0.9994230270385742,
                0.9242916107177734,
                -0.9994226694107056
            ],
            "bufferView" : 21,
            "componentType" : 5126,
            "type" : "VEC3",
            "max" : [
                0.9994231462478638,
                0.9244213104248047,
                0.9994232654571533
            ],
            "count" : 6
        },
        {
            "bufferView" : 22,
            "componentType" : 5126,
            "type" : "VEC2",
            "count" : 6
        },
        {
            "bufferView" : 23,
            "componentType" : 5123,
            "type" : "SCALAR",
            "count" : 12
        },
        {
            "bufferView" : 24,
            "componentType" : 5126,
            "type" : "VEC3",
            "count" : 44
        },
        {
            "min" : [
                0.3771941363811493,
                -0.6325511336326599,
                -1.0005773305892944
            ],
            "bufferView" : 25,
            "componentType" : 5126,
            "type" : "VEC3",
            "max" : [
                0.8728061318397522,
                -0.5659809112548828,
                -0.9687743782997131
            ],
            "count" : 44
        },
        {
            "bufferView" : 26,
            "componentType" : 5126,
            "type" : "VEC2",
            "count" : 44
        },
        {
            "bufferView" : 27,
            "componentType" : 5123,
            "type" : "SCALAR",
            "count" : 66
        }
    ],
    "bufferViews" : [
        {
            "byteLength" : 10188,
            "buffer" : 0,
            "byteOffset" : 0
        },
        {
            "byteLength" : 10188,
            "buffer" : 0,
            "byteOffset" : 10188
        },
        {
            "byteLength" : 9984,
            "buffer" : 0,
            "byteOffset" : 20376
        },
        {
            "byteLength" : 1356,
            "buffer" : 0,
            "byteOffset" : 30360
        },
        {
            "byteLength" : 1356,
            "buffer" : 0,
            "byteOffset" : 31716
        },
        {
            "byteLength" : 1152,
            "buffer" : 0,
            "byteOffset" : 33072
        },
        {
            "byteLength" : 4896,
            "buffer" : 0,
            "byteOffset" : 34224
        },
        {
            "byteLength" : 4896,
            "buffer" : 0,
            "byteOffset" : 39120
        },
        {
            "byteLength" : 3264,
            "buffer" : 0,
            "byteOffset" : 44016
        },
        {
            "byteLength" : 2232,
            "buffer" : 0,
            "byteOffset" : 47280
        },
        {
            "byteLength" : 39038,
            "buffer" : 0,
            "byteOffset" : 49512
        },
        {
            "byteLength" : 660,
            "buffer" : 0,
            "byteOffset" : 88552
        },
        {
            "byteLength" : 660,
            "buffer" : 0,
            "byteOffset" : 89212
        },
        {
            "byteLength" : 440,
            "buffer" : 0,
            "byteOffset" : 89872
        },
        {
            "byteLength" : 174,
            "buffer" : 0,
            "byteOffset" : 90312
        },
        {
            "byteLength" : 293656,
            "buffer" : 0,
            "byteOffset" : 90488
        },
        {
            "byteLength" : 3540,
            "buffer" : 0,
            "byteOffset" : 384144
        },
        {
            "byteLength" : 3540,
            "buffer" : 0,
            "byteOffset" : 387684
        },
        {
            "byteLength" : 2360,
            "buffer" : 0,
            "byteOffset" : 391224
        },
        {
            "byteLength" : 978,
            "buffer" : 0,
            "byteOffset" : 393584
        },
        {
            "byteLength" : 72,
            "buffer" : 0,
            "byteOffset" : 394564
        },
        {
            "byteLength" : 72,
            "buffer" : 0,
            "byteOffset" : 394636
        },
        {
            "byteLength" : 48,
            "buffer" : 0,
            "byteOffset" : 394708
        },
        {
            "byteLength" : 24,
            "buffer" : 0,
            "byteOffset" : 394756
        },
        {
            "byteLength" : 528,
            "buffer" : 0,
            "byteOffset" : 394780
        },
        {
            "byteLength" : 528,
            "buffer" : 0,
            "byteOffset" : 395308
        },
        {
            "byteLength" : 352,
            "buffer" : 0,
            "byteOffset" : 395836
        },
        {
            "byteLength" : 132,
            "buffer" : 0,
            "byteOffset" : 396188
        }
    ],
    "buffers" : [
        {
            "uri" : "data:application/octet-stream;base64,",
            "byteLength" : 396320
        }
    ]
}
