{
    "asset" : {
        "version" : "2.0",
        "generator" : "Khronos glTF Blender I/O v1.2.20"
    },
    "scene" : 0,
    "scenes" : [
        {
            "name" : "Scene",
            "nodes" : [
                0,
                1,
                2
            ]
        }
    ],
    "nodes" : [
        {
            "scale" : [
                0.6124697327613831,
                0.11402793228626251,
                0.6124697327613831
            ],
            "translation" : [
                -0.013599932193756104,
                3.897996187210083,
                1.1574900150299072
            ],
            "name" : "Cube.014",
            "mesh" : 0
        },
        {
            "scale" : [
                0.019719108939170837,
                -0.05507337301969528,
                0.019719108939170837
            ],
            "name" : "Cylinder.001",
            "translation" : [
                1.6748379468917847,
                3.3660948276519775,
                -3.208104372024536
            ],
            "rotation" : [
                0.5,
                -0.5,
                -0.4999999701976776,
                0.5
            ],
            "mesh" : 1
        },
        {
            "scale" : [
                4.498690128326416,
                2,
                3.276711940765381
            ],
            "translation" : [
                0,
                2.140345335006714,
                0
            ],
            "name" : "sciany",
            "mesh" : 2
        }
    ],
    "materials" : [
        {
            "pbrMetallicRoughness" : {},
            "name" : "Material.027"
        },
        {
            "pbrMetallicRoughness" : {
                "roughnessFactor" : 1,
                "metallicFactor" : 0,
                "baseColorFactor" : [
                    0.8941043615341187,
                    0.9004181623458862,
                    1,
                    1
                ]
            },
            "name" : "Material.028"
        },
        {
            "pbrMetallicRoughness" : {
                "roughnessFactor" : 1,
                "metallicFactor" : 0,
                "baseColorTexture" : {
                    "index" : 0,
                    "texCoord" : 0
                }
            },
            "name" : "Material.034"
        },
        {
            "pbrMetallicRoughness" : {
                "roughnessFactor" : 1,
                "metallicFactor" : 0,
                "baseColorTexture" : {
                    "index" : 1,
                    "texCoord" : 0
                }
            },
            "name" : "Material.008"
        },
        {
            "pbrMetallicRoughness" : {
                "roughnessFactor" : 1,
                "metallicFactor" : 0,
                "baseColorTexture" : {
                    "index" : 2,
                    "texCoord" : 0
                }
            },
            "name" : "Material.009"
        },
        {
            "pbrMetallicRoughness" : {
                "roughnessFactor" : 1,
                "metallicFactor" : 0,
                "baseColorTexture" : {
                    "index" : 3,
                    "texCoord" : 0
                }
            },
            "name" : "Material.011"
        },
        {
            "pbrMetallicRoughness" : {
                "roughnessFactor" : 1,
                "metallicFactor" : 0,
                "baseColorTexture" : {
                    "index" : 4,
                    "texCoord" : 0
                }
            },
            "name" : "Material.026"
        }
    ],
    "meshes" : [
        {
            "primitives" : [
                {
                    "material" : 0,
                    "attributes" : {
                        "POSITION" : 0,
                        "NORMAL" : 1
                    },
                    "indices" : 2
                },
                {
                    "material" : 1,
                    "attributes" : {
                        "POSITION" : 3,
                        "NORMAL" : 4
                    },
                    "indices" : 5
                }
            ],
            "name" : "Cube.018"
        },
        {
            "primitives" : [
                {
                    "material" : 2,
                    "attributes" : {
                        "POSITION" : 6,
                        "TEXCOORD_0" : 7,
                        "NORMAL" : 8
                    },
                    "indices" : 9
                }
            ],
            "name" : "Cylinder.001"
        },
        {
            "primitives" : [
                {
                    "material" : 3,
                    "attributes" : {
                        "POSITION" : 10,
                        "TEXCOORD_0" : 11,
                        "NORMAL" : 12
                    },
                    "indices" : 13
                },
                {
                    "material" : 4,
                    "attributes" : {
                        "POSITION" : 14,
                        "TEXCOORD_0" : 15,
                        "NORMAL" : 16
                    },
                    "indices" : 17
                },
                {
                    "material" : 5,
                    "attributes" : {
                        "POSITION" : 18,
                        "TEXCOORD_0" : 19,
                        "NORMAL" : 20
                    },
                    "indices" : 21
                },
                {
                    "material" : 6,
                    "attributes" : {
                        "POSITION" : 22,
                        "TEXCOORD_0" : 23,
                        "NORMAL" : 24
                    },
                    "indices" : 25
                }
            ],
            "name" : "Cube"
        }
    ],
    "textures" : [
        {
            "source" : 0
        },
        {
            "source" : 1
        },
        {
            "source" : 1
        },
        {
            "source" : 1
        },
        {
            "source" : 1
        }
    ],
    "images" : [
        {
            "mimeType" : "image/png",
            "name" : "uchwytzaslony",
            "bufferView" : 10
        },
        {
            "mimeType" : "image/png",
            "name" : "sciana2",
            "bufferView" : 15
        }
    ],
    "accessors" : [
        {
            "max" : [
                0.921875,
                0.6706373691558838,
                0.921875
            ],
            "componentType" : 5126,
            "type" : "VEC3",
            "bufferView" : 0,
            "min" : [
                -0.921875,
                -1.3293626308441162,
                -0.921875
            ],
            "count" : 849
        },
        {
            "componentType" : 5126,
            "bufferView" : 1,
            "type" : "VEC3",
            "count" : 849
        },
        {
            "componentType" : 5123,
            "bufferView" : 2,
            "type" : "SCALAR",
            "count" : 4992
        },
        {
            "max" : [
                0.7188584208488464,
                -1,
                0.7188584208488464
            ],
            "componentType" : 5126,
            "type" : "VEC3",
            "bufferView" : 3,
            "min" : [
                -0.7188584208488464,
                -1,
                -0.7188584208488464
            ],
            "count" : 113
        },
        {
            "componentType" : 5126,
            "bufferView" : 4,
            "type" : "VEC3",
            "count" : 113
        },
        {
            "componentType" : 5123,
            "bufferView" : 5,
            "type" : "SCALAR",
            "count" : 576
        },
        {
            "max" : [
                1.6409839391708374,
                1,
                8.149978637695312
            ],
            "componentType" : 5126,
            "type" : "VEC3",
            "bufferView" : 6,
            "min" : [
                -1.6409839391708374,
                -1.546722650527954,
                -119.29020690917969
            ],
            "count" : 408
        },
        {
            "componentType" : 5126,
            "bufferView" : 7,
            "type" : "VEC2",
            "count" : 408
        },
        {
            "componentType" : 5126,
            "bufferView" : 8,
            "type" : "VEC3",
            "count" : 408
        },
        {
            "componentType" : 5123,
            "bufferView" : 9,
            "type" : "SCALAR",
            "count" : 1116
        },
        {
            "max" : [
                1,
                -0.8142792582511902,
                1
            ],
            "componentType" : 5126,
            "type" : "VEC3",
            "bufferView" : 11,
            "min" : [
                -1.000000238418579,
                -1,
                -1.0000003576278687
            ],
            "count" : 55
        },
        {
            "componentType" : 5126,
            "bufferView" : 12,
            "type" : "VEC2",
            "count" : 55
        },
        {
            "componentType" : 5126,
            "bufferView" : 13,
            "type" : "VEC3",
            "count" : 55
        },
        {
            "componentType" : 5123,
            "bufferView" : 14,
            "type" : "SCALAR",
            "count" : 87
        },
        {
            "max" : [
                1.0000004768371582,
                0.9249986410140991,
                1.0000005960464478
            ],
            "componentType" : 5126,
            "type" : "VEC3",
            "bufferView" : 16,
            "min" : [
                -1.0000003576278687,
                -1.005071759223938,
                -1.0005773305892944
            ],
            "count" : 295
        },
        {
            "componentType" : 5126,
            "bufferView" : 17,
            "type" : "VEC2",
            "count" : 295
        },
        {
            "componentType" : 5126,
            "bufferView" : 18,
            "type" : "VEC3",
            "count" : 295
        },
        {
            "componentType" : 5123,
            "bufferView" : 19,
            "type" : "SCALAR",
            "count" : 489
        },
        {
            "max" : [
                0.9994231462478638,
                0.9244213104248047,
                0.9994232654571533
            ],
            "componentType" : 5126,
            "type" : "VEC3",
            "bufferView" : 20,
            "min" : [
                -0.9994230270385742,
                0.9242916107177734,
                -0.9994226694107056
            ],
            "count" : 6
        },
        {
            "componentType" : 5126,
            "bufferView" : 21,
            "type" : "VEC2",
            "count" : 6
        },
        {
            "componentType" : 5126,
            "bufferView" : 22,
            "type" : "VEC3",
            "count" : 6
        },
        {
            "componentType" : 5123,
            "bufferView" : 23,
            "type" : "SCALAR",
            "count" : 12
        },
        {
            "max" : [
                0.8728061318397522,
                -0.5659809112548828,
                -0.9687743782997131
            ],
            "componentType" : 5126,
            "type" : "VEC3",
            "bufferView" : 24,
            "min" : [
                0.3771941363811493,
                -0.6325511336326599,
                -1.0005773305892944
            ],
            "count" : 44
        },
        {
            "componentType" : 5126,
            "bufferView" : 25,
            "type" : "VEC2",
            "count" : 44
        },
        {
            "componentType" : 5126,
            "bufferView" : 26,
            "type" : "VEC3",
            "count" : 44
        },
        {
            "componentType" : 5123,
            "bufferView" : 27,
            "type" : "SCALAR",
            "count" : 66
        }
    ],
    "bufferViews" : [
        {
            "byteOffset" : 0,
            "byteLength" : 10188,
            "buffer" : 0
        },
        {
            "byteOffset" : 10188,
            "byteLength" : 10188,
            "buffer" : 0
        },
        {
            "byteOffset" : 20376,
            "byteLength" : 9984,
            "buffer" : 0
        },
        {
            "byteOffset" : 30360,
            "byteLength" : 1356,
            "buffer" : 0
        },
        {
            "byteOffset" : 31716,
            "byteLength" : 1356,
            "buffer" : 0
        },
        {
            "byteOffset" : 33072,
            "byteLength" : 1152,
            "buffer" : 0
        },
        {
            "byteOffset" : 34224,
            "byteLength" : 4896,
            "buffer" : 0
        },
        {
            "byteOffset" : 39120,
            "byteLength" : 3264,
            "buffer" : 0
        },
        {
            "byteOffset" : 42384,
            "byteLength" : 4896,
            "buffer" : 0
        },
        {
            "byteOffset" : 47280,
            "byteLength" : 2232,
            "buffer" : 0
        },
        {
            "byteOffset" : 49512,
            "byteLength" : 46747,
            "buffer" : 0
        },
        {
            "byteOffset" : 96260,
            "byteLength" : 660,
            "buffer" : 0
        },
        {
            "byteOffset" : 96920,
            "byteLength" : 440,
            "buffer" : 0
        },
        {
            "byteOffset" : 97360,
            "byteLength" : 660,
            "buffer" : 0
        },
        {
            "byteOffset" : 98020,
            "byteLength" : 174,
            "buffer" : 0
        },
        {
            "byteOffset" : 98196,
            "byteLength" : 200810,
            "buffer" : 0
        },
        {
            "byteOffset" : 299008,
            "byteLength" : 3540,
            "buffer" : 0
        },
        {
            "byteOffset" : 302548,
            "byteLength" : 2360,
            "buffer" : 0
        },
        {
            "byteOffset" : 304908,
            "byteLength" : 3540,
            "buffer" : 0
        },
        {
            "byteOffset" : 308448,
            "byteLength" : 978,
            "buffer" : 0
        },
        {
            "byteOffset" : 309428,
            "byteLength" : 72,
            "buffer" : 0
        },
        {
            "byteOffset" : 309500,
            "byteLength" : 48,
            "buffer" : 0
        },
        {
            "byteOffset" : 309548,
            "byteLength" : 72,
            "buffer" : 0
        },
        {
            "byteOffset" : 309620,
            "byteLength" : 24,
            "buffer" : 0
        },
        {
            "byteOffset" : 309644,
            "byteLength" : 528,
            "buffer" : 0
        },
        {
            "byteOffset" : 310172,
            "byteLength" : 352,
            "buffer" : 0
        },
        {
            "byteOffset" : 310524,
            "byteLength" : 528,
            "buffer" : 0
        },
        {
            "byteOffset" : 311052,
            "byteLength" : 132,
            "buffer" : 0
        }
    ],
    "buffers" : [
        {
            "uri" : "data:application/octet-stream;base64,",
            "byteLength" : 311184
        }
    ]
}
