{
    "asset" : {
        "generator" : "Khronos glTF Blender I/O v1.2.20",
        "version" : "2.0"
    },
    "scene" : 0,
    "scenes" : [
        {
            "name" : "Scene",
            "nodes" : [
                0,
                1,
                2,
                3
            ]
        }
    ],
    "nodes" : [
        {
            "name" : "Cube.003",
            "scale" : [
                0.3657776415348053,
                0.1320573091506958,
                0.509022057056427
            ],
            "translation" : [
                0.3177001178264618,
                1.2116820812225342,
                -7.227608680725098
            ],
            "mesh" : 0
        },
        {
            "name" : "Cylinder.002",
            "rotation" : [
                0,
                0,
                -0.9393289089202881,
                0.34301772713661194
            ],
            "translation" : [
                1.1455209255218506,
                1.5081592798233032,
                -7.175200462341309
            ],
            "mesh" : 1
        },
        {
            "name" : "Cube",
            "scale" : [
                1.5,
                0.14824378490447998,
                0.75
            ],
            "translation" : [
                0.25390690565109253,
                0.9237592220306396,
                -7.208946704864502
            ],
            "mesh" : 2
        },
        {
            "name" : "Cube.006",
            "rotation" : [
                0,
                0.7071067690849304,
                -0.7071067690849304,
                -1.306566304037915e-07
            ],
            "scale" : [
                1,
                0.1356140822172165,
                1
            ],
            "mesh" : 3,
            "translation" : [
                -0.8956317901611328,
                2.0153653621673584,
                6.349964141845703
            ]
        }
    ],
    "materials" : [
        {
            "name" : "Material.007",
            "pbrMetallicRoughness" : {
                "roughnessFactor" : 1,
                "metallicFactor" : 0,
                "baseColorTexture" : {
                    "texCoord" : 0,
                    "index" : 0
                }
            }
        },
        {
            "name" : "Material.008",
            "pbrMetallicRoughness" : {
                "roughnessFactor" : 1,
                "metallicFactor" : 0,
                "baseColorTexture" : {
                    "texCoord" : 0,
                    "index" : 1
                }
            }
        },
        {
            "name" : "Material.004",
            "pbrMetallicRoughness" : {
                "roughnessFactor" : 1,
                "metallicFactor" : 0,
                "baseColorTexture" : {
                    "texCoord" : 0,
                    "index" : 2
                }
            }
        },
        {
            "name" : "Material.001",
            "pbrMetallicRoughness" : {
                "roughnessFactor" : 1,
                "metallicFactor" : 0,
                "baseColorTexture" : {
                    "texCoord" : 0,
                    "index" : 3
                }
            }
        },
        {
            "name" : "Material.003",
            "pbrMetallicRoughness" : {
                "roughnessFactor" : 1,
                "metallicFactor" : 0,
                "baseColorTexture" : {
                    "texCoord" : 0,
                    "index" : 4
                }
            }
        },
        {
            "name" : "Material.005",
            "pbrMetallicRoughness" : {
                "roughnessFactor" : 1,
                "metallicFactor" : 0,
                "baseColorTexture" : {
                    "texCoord" : 0,
                    "index" : 5
                }
            }
        },
        {
            "name" : "Material.031",
            "pbrMetallicRoughness" : {
                "roughnessFactor" : 0,
                "metallicFactor" : 0,
                "baseColorTexture" : {
                    "texCoord" : 0,
                    "index" : 6
                }
            }
        }
    ],
    "meshes" : [
        {
            "name" : "Cube",
            "primitives" : [
                {
                    "indices" : 3,
                    "attributes" : {
                        "NORMAL" : 0,
                        "POSITION" : 1,
                        "TEXCOORD_0" : 2
                    },
                    "material" : 0
                },
                {
                    "indices" : 7,
                    "attributes" : {
                        "NORMAL" : 4,
                        "POSITION" : 5,
                        "TEXCOORD_0" : 6
                    },
                    "material" : 1
                }
            ]
        },
        {
            "name" : "Cylinder.003",
            "primitives" : [
                {
                    "indices" : 11,
                    "attributes" : {
                        "NORMAL" : 8,
                        "POSITION" : 9,
                        "TEXCOORD_0" : 10
                    },
                    "material" : 2
                },
                {
                    "indices" : 15,
                    "attributes" : {
                        "NORMAL" : 12,
                        "POSITION" : 13,
                        "TEXCOORD_0" : 14
                    },
                    "material" : 3
                },
                {
                    "indices" : 19,
                    "attributes" : {
                        "NORMAL" : 16,
                        "POSITION" : 17,
                        "TEXCOORD_0" : 18
                    },
                    "material" : 4
                }
            ]
        },
        {
            "name" : "Cube.001",
            "primitives" : [
                {
                    "indices" : 23,
                    "attributes" : {
                        "NORMAL" : 20,
                        "POSITION" : 21,
                        "TEXCOORD_0" : 22
                    },
                    "material" : 5
                }
            ]
        },
        {
            "name" : "Cube.006",
            "primitives" : [
                {
                    "indices" : 27,
                    "attributes" : {
                        "NORMAL" : 24,
                        "POSITION" : 25,
                        "TEXCOORD_0" : 26
                    },
                    "material" : 6
                }
            ]
        }
    ],
    "textures" : [
        {
            "source" : 0
        },
        {
            "source" : 0
        },
        {
            "source" : 1
        },
        {
            "source" : 1
        },
        {
            "source" : 1
        },
        {
            "source" : 2
        },
        {
            "source" : 3
        }
    ],
    "images" : [
        {
            "name" : "ksiazka",
            "bufferView" : 4,
            "mimeType" : "image/png"
        },
        {
            "name" : "latarenka",
            "bufferView" : 13,
            "mimeType" : "image/png"
        },
        {
            "name" : "stol",
            "bufferView" : 26,
            "mimeType" : "image/png"
        },
        {
            "name" : "lustro",
            "bufferView" : 31,
            "mimeType" : "image/png"
        }
    ],
    "accessors" : [
        {
            "bufferView" : 0,
            "componentType" : 5126,
            "type" : "VEC3",
            "count" : 116
        },
        {
            "min" : [
                -1.0798747539520264,
                -1,
                -1
            ],
            "bufferView" : 1,
            "componentType" : 5126,
            "type" : "VEC3",
            "max" : [
                1,
                1,
                1
            ],
            "count" : 116
        },
        {
            "bufferView" : 2,
            "componentType" : 5126,
            "type" : "VEC2",
            "count" : 116
        },
        {
            "bufferView" : 3,
            "componentType" : 5123,
            "type" : "SCALAR",
            "count" : 282
        },
        {
            "bufferView" : 5,
            "componentType" : 5126,
            "type" : "VEC3",
            "count" : 12
        },
        {
            "min" : [
                -0.877953290939331,
                -0.6355732083320618,
                -0.9767929315567017
            ],
            "bufferView" : 6,
            "componentType" : 5126,
            "type" : "VEC3",
            "max" : [
                0.9779532551765442,
                0.6706669926643372,
                0.9767929315567017
            ],
            "count" : 12
        },
        {
            "bufferView" : 7,
            "componentType" : 5126,
            "type" : "VEC2",
            "count" : 12
        },
        {
            "bufferView" : 8,
            "componentType" : 5123,
            "type" : "SCALAR",
            "count" : 18
        },
        {
            "bufferView" : 9,
            "componentType" : 5126,
            "type" : "VEC3",
            "count" : 1191
        },
        {
            "min" : [
                -0.3485402464866638,
                -0.19222263991832733,
                -0.00912220124155283
            ],
            "bufferView" : 10,
            "componentType" : 5126,
            "type" : "VEC3",
            "max" : [
                0.00912220124155283,
                0.16528566181659698,
                0.009122341871261597
            ],
            "count" : 1191
        },
        {
            "bufferView" : 11,
            "componentType" : 5126,
            "type" : "VEC2",
            "count" : 1191
        },
        {
            "bufferView" : 12,
            "componentType" : 5123,
            "type" : "SCALAR",
            "count" : 5544
        },
        {
            "bufferView" : 14,
            "componentType" : 5126,
            "type" : "VEC3",
            "count" : 1179
        },
        {
            "min" : [
                -0.1863120198249817,
                0.00021541118621826172,
                -0.14341217279434204
            ],
            "bufferView" : 15,
            "componentType" : 5126,
            "type" : "VEC3",
            "max" : [
                0.2927205562591553,
                0.49642670154571533,
                0.14341217279434204
            ],
            "count" : 1179
        },
        {
            "bufferView" : 16,
            "componentType" : 5126,
            "type" : "VEC2",
            "count" : 1179
        },
        {
            "bufferView" : 17,
            "componentType" : 5123,
            "type" : "SCALAR",
            "count" : 5088
        },
        {
            "bufferView" : 18,
            "componentType" : 5126,
            "type" : "VEC3",
            "count" : 576
        },
        {
            "min" : [
                -0.2112428992986679,
                -0.04186907410621643,
                -0.08339212089776993
            ],
            "bufferView" : 19,
            "componentType" : 5126,
            "type" : "VEC3",
            "max" : [
                0.009194418787956238,
                0.17311282455921173,
                0.08339212089776993
            ],
            "count" : 576
        },
        {
            "bufferView" : 20,
            "componentType" : 5126,
            "type" : "VEC2",
            "count" : 576
        },
        {
            "bufferView" : 21,
            "componentType" : 5123,
            "type" : "SCALAR",
            "count" : 1716
        },
        {
            "bufferView" : 22,
            "componentType" : 5126,
            "type" : "VEC3",
            "count" : 344
        },
        {
            "min" : [
                -1.0299999713897705,
                -6.160418510437012,
                -1.059999942779541
            ],
            "bufferView" : 23,
            "componentType" : 5126,
            "type" : "VEC3",
            "max" : [
                1.0299999713897705,
                1,
                1.059999942779541
            ],
            "count" : 344
        },
        {
            "bufferView" : 24,
            "componentType" : 5126,
            "type" : "VEC2",
            "count" : 344
        },
        {
            "bufferView" : 25,
            "componentType" : 5123,
            "type" : "SCALAR",
            "count" : 516
        },
        {
            "bufferView" : 27,
            "componentType" : 5126,
            "type" : "VEC3",
            "count" : 108
        },
        {
            "min" : [
                -0.5,
                -0.27875444293022156,
                -1
            ],
            "bufferView" : 28,
            "componentType" : 5126,
            "type" : "VEC3",
            "max" : [
                0.5,
                0.27875444293022156,
                1
            ],
            "count" : 108
        },
        {
            "bufferView" : 29,
            "componentType" : 5126,
            "type" : "VEC2",
            "count" : 108
        },
        {
            "bufferView" : 30,
            "componentType" : 5123,
            "type" : "SCALAR",
            "count" : 204
        }
    ],
    "bufferViews" : [
        {
            "byteLength" : 1392,
            "buffer" : 0,
            "byteOffset" : 0
        },
        {
            "byteLength" : 1392,
            "buffer" : 0,
            "byteOffset" : 1392
        },
        {
            "byteLength" : 928,
            "buffer" : 0,
            "byteOffset" : 2784
        },
        {
            "byteLength" : 564,
            "buffer" : 0,
            "byteOffset" : 3712
        },
        {
            "byteLength" : 52784,
            "buffer" : 0,
            "byteOffset" : 4276
        },
        {
            "byteLength" : 144,
            "buffer" : 0,
            "byteOffset" : 57060
        },
        {
            "byteLength" : 144,
            "buffer" : 0,
            "byteOffset" : 57204
        },
        {
            "byteLength" : 96,
            "buffer" : 0,
            "byteOffset" : 57348
        },
        {
            "byteLength" : 36,
            "buffer" : 0,
            "byteOffset" : 57444
        },
        {
            "byteLength" : 14292,
            "buffer" : 0,
            "byteOffset" : 57480
        },
        {
            "byteLength" : 14292,
            "buffer" : 0,
            "byteOffset" : 71772
        },
        {
            "byteLength" : 9528,
            "buffer" : 0,
            "byteOffset" : 86064
        },
        {
            "byteLength" : 11088,
            "buffer" : 0,
            "byteOffset" : 95592
        },
        {
            "byteLength" : 77228,
            "buffer" : 0,
            "byteOffset" : 106680
        },
        {
            "byteLength" : 14148,
            "buffer" : 0,
            "byteOffset" : 183908
        },
        {
            "byteLength" : 14148,
            "buffer" : 0,
            "byteOffset" : 198056
        },
        {
            "byteLength" : 9432,
            "buffer" : 0,
            "byteOffset" : 212204
        },
        {
            "byteLength" : 10176,
            "buffer" : 0,
            "byteOffset" : 221636
        },
        {
            "byteLength" : 6912,
            "buffer" : 0,
            "byteOffset" : 231812
        },
        {
            "byteLength" : 6912,
            "buffer" : 0,
            "byteOffset" : 238724
        },
        {
            "byteLength" : 4608,
            "buffer" : 0,
            "byteOffset" : 245636
        },
        {
            "byteLength" : 3432,
            "buffer" : 0,
            "byteOffset" : 250244
        },
        {
            "byteLength" : 4128,
            "buffer" : 0,
            "byteOffset" : 253676
        },
        {
            "byteLength" : 4128,
            "buffer" : 0,
            "byteOffset" : 257804
        },
        {
            "byteLength" : 2752,
            "buffer" : 0,
            "byteOffset" : 261932
        },
        {
            "byteLength" : 1032,
            "buffer" : 0,
            "byteOffset" : 264684
        },
        {
            "byteLength" : 52900,
            "buffer" : 0,
            "byteOffset" : 265716
        },
        {
            "byteLength" : 1296,
            "buffer" : 0,
            "byteOffset" : 318616
        },
        {
            "byteLength" : 1296,
            "buffer" : 0,
            "byteOffset" : 319912
        },
        {
            "byteLength" : 864,
            "buffer" : 0,
            "byteOffset" : 321208
        },
        {
            "byteLength" : 408,
            "buffer" : 0,
            "byteOffset" : 322072
        },
        {
            "byteLength" : 57996,
            "buffer" : 0,
            "byteOffset" : 322480
        }
    ],
    "buffers" : [
        {
            "uri" : "data:application/octet-stream;base64,",
            "byteLength" : 380476
        }
    ]
}
