{
    "asset" : {
        "version" : "2.0",
        "generator" : "Khronos glTF Blender I/O v1.2.20"
    },
    "scene" : 0,
    "scenes" : [
        {
            "nodes" : [
                0,
                1,
                2,
                3
            ],
            "name" : "Scene"
        }
    ],
    "nodes" : [
        {
            "translation" : [
                0.3177001178264618,
                1.2116820812225342,
                -7.227608680725098
            ],
            "name" : "Cube.003",
            "scale" : [
                0.3657776415348053,
                0.1320573091506958,
                0.509022057056427
            ],
            "mesh" : 0
        },
        {
            "rotation" : [
                0,
                0,
                -0.9393289089202881,
                0.34301772713661194
            ],
            "translation" : [
                1.1455209255218506,
                1.5081592798233032,
                -7.175200462341309
            ],
            "name" : "Cylinder.002",
            "mesh" : 1
        },
        {
            "translation" : [
                0.25390690565109253,
                0.9237592220306396,
                -7.208946704864502
            ],
            "name" : "Cube",
            "scale" : [
                1.5,
                0.14824378490447998,
                0.75
            ],
            "mesh" : 2
        },
        {
            "rotation" : [
                0,
                0.7071067690849304,
                -0.7071067690849304,
                -1.306566304037915e-07
            ],
            "translation" : [
                -0.8956317901611328,
                2.0153653621673584,
                6.349964141845703
            ],
            "name" : "Cube.006",
            "scale" : [
                1,
                0.1356140822172165,
                1
            ],
            "mesh" : 3
        }
    ],
    "materials" : [
        {
            "pbrMetallicRoughness" : {
                "roughnessFactor" : 1,
                "metallicFactor" : 0,
                "baseColorTexture" : {
                    "index" : 0,
                    "texCoord" : 0
                }
            },
            "name" : "Material.007"
        },
        {
            "pbrMetallicRoughness" : {
                "roughnessFactor" : 1,
                "metallicFactor" : 0,
                "baseColorTexture" : {
                    "index" : 1,
                    "texCoord" : 0
                }
            },
            "name" : "Material.008"
        },
        {
            "pbrMetallicRoughness" : {
                "roughnessFactor" : 1,
                "metallicFactor" : 0,
                "baseColorTexture" : {
                    "index" : 2,
                    "texCoord" : 0
                }
            },
            "name" : "Material.004"
        },
        {
            "pbrMetallicRoughness" : {
                "roughnessFactor" : 1,
                "metallicFactor" : 0,
                "baseColorTexture" : {
                    "index" : 3,
                    "texCoord" : 0
                }
            },
            "name" : "Material.001"
        },
        {
            "pbrMetallicRoughness" : {
                "roughnessFactor" : 1,
                "metallicFactor" : 0,
                "baseColorTexture" : {
                    "index" : 4,
                    "texCoord" : 0
                }
            },
            "name" : "Material.003"
        },
        {
            "pbrMetallicRoughness" : {
                "roughnessFactor" : 1,
                "metallicFactor" : 0,
                "baseColorTexture" : {
                    "index" : 5,
                    "texCoord" : 0
                }
            },
            "name" : "Material.005"
        },
        {
            "pbrMetallicRoughness" : {
                "roughnessFactor" : 0,
                "metallicFactor" : 0,
                "baseColorTexture" : {
                    "index" : 6,
                    "texCoord" : 0
                }
            },
            "name" : "Material.031"
        }
    ],
    "meshes" : [
        {
            "name" : "Cube",
            "primitives" : [
                {
                    "attributes" : {
                        "POSITION" : 0,
                        "NORMAL" : 1,
                        "TEXCOORD_0" : 2
                    },
                    "indices" : 3,
                    "material" : 0
                },
                {
                    "attributes" : {
                        "POSITION" : 4,
                        "NORMAL" : 5,
                        "TEXCOORD_0" : 6
                    },
                    "indices" : 7,
                    "material" : 1
                }
            ]
        },
        {
            "name" : "Cylinder.003",
            "primitives" : [
                {
                    "attributes" : {
                        "POSITION" : 8,
                        "NORMAL" : 9,
                        "TEXCOORD_0" : 10
                    },
                    "indices" : 11,
                    "material" : 2
                },
                {
                    "attributes" : {
                        "POSITION" : 12,
                        "NORMAL" : 13,
                        "TEXCOORD_0" : 14
                    },
                    "indices" : 15,
                    "material" : 3
                },
                {
                    "attributes" : {
                        "POSITION" : 16,
                        "NORMAL" : 17,
                        "TEXCOORD_0" : 18
                    },
                    "indices" : 19,
                    "material" : 4
                }
            ]
        },
        {
            "name" : "Cube.001",
            "primitives" : [
                {
                    "attributes" : {
                        "POSITION" : 20,
                        "NORMAL" : 21,
                        "TEXCOORD_0" : 22
                    },
                    "indices" : 23,
                    "material" : 5
                }
            ]
        },
        {
            "name" : "Cube.006",
            "primitives" : [
                {
                    "attributes" : {
                        "POSITION" : 24,
                        "NORMAL" : 25,
                        "TEXCOORD_0" : 26
                    },
                    "indices" : 27,
                    "material" : 6
                }
            ]
        }
    ],
    "textures" : [
        {
            "source" : 0
        },
        {
            "source" : 0
        },
        {
            "source" : 1
        },
        {
            "source" : 1
        },
        {
            "source" : 1
        },
        {
            "source" : 2
        },
        {
            "source" : 3
        }
    ],
    "images" : [
        {
            "bufferView" : 4,
            "name" : "ksiazka",
            "mimeType" : "image/png"
        },
        {
            "bufferView" : 13,
            "name" : "latarenka",
            "mimeType" : "image/png"
        },
        {
            "bufferView" : 26,
            "name" : "stol",
            "mimeType" : "image/png"
        },
        {
            "bufferView" : 31,
            "name" : "lustro",
            "mimeType" : "image/png"
        }
    ],
    "accessors" : [
        {
            "type" : "VEC3",
            "max" : [
                1,
                1,
                1
            ],
            "count" : 116,
            "componentType" : 5126,
            "bufferView" : 0,
            "min" : [
                -1.0798747539520264,
                -1,
                -1
            ]
        },
        {
            "componentType" : 5126,
            "bufferView" : 1,
            "type" : "VEC3",
            "count" : 116
        },
        {
            "componentType" : 5126,
            "bufferView" : 2,
            "type" : "VEC2",
            "count" : 116
        },
        {
            "componentType" : 5123,
            "bufferView" : 3,
            "type" : "SCALAR",
            "count" : 282
        },
        {
            "type" : "VEC3",
            "max" : [
                0.9779532551765442,
                0.6706669926643372,
                0.9767929315567017
            ],
            "count" : 12,
            "componentType" : 5126,
            "bufferView" : 5,
            "min" : [
                -0.877953290939331,
                -0.6355732083320618,
                -0.9767929315567017
            ]
        },
        {
            "componentType" : 5126,
            "bufferView" : 6,
            "type" : "VEC3",
            "count" : 12
        },
        {
            "componentType" : 5126,
            "bufferView" : 7,
            "type" : "VEC2",
            "count" : 12
        },
        {
            "componentType" : 5123,
            "bufferView" : 8,
            "type" : "SCALAR",
            "count" : 18
        },
        {
            "type" : "VEC3",
            "max" : [
                0.00912220124155283,
                0.16528566181659698,
                0.009122341871261597
            ],
            "count" : 1191,
            "componentType" : 5126,
            "bufferView" : 9,
            "min" : [
                -0.3485402464866638,
                -0.19222263991832733,
                -0.00912220124155283
            ]
        },
        {
            "componentType" : 5126,
            "bufferView" : 10,
            "type" : "VEC3",
            "count" : 1191
        },
        {
            "componentType" : 5126,
            "bufferView" : 11,
            "type" : "VEC2",
            "count" : 1191
        },
        {
            "componentType" : 5123,
            "bufferView" : 12,
            "type" : "SCALAR",
            "count" : 5544
        },
        {
            "type" : "VEC3",
            "max" : [
                0.2927205562591553,
                0.49642670154571533,
                0.14341217279434204
            ],
            "count" : 1179,
            "componentType" : 5126,
            "bufferView" : 14,
            "min" : [
                -0.1863120198249817,
                0.00021541118621826172,
                -0.14341217279434204
            ]
        },
        {
            "componentType" : 5126,
            "bufferView" : 15,
            "type" : "VEC3",
            "count" : 1179
        },
        {
            "componentType" : 5126,
            "bufferView" : 16,
            "type" : "VEC2",
            "count" : 1179
        },
        {
            "componentType" : 5123,
            "bufferView" : 17,
            "type" : "SCALAR",
            "count" : 5088
        },
        {
            "type" : "VEC3",
            "max" : [
                0.009194418787956238,
                0.17311282455921173,
                0.08339212089776993
            ],
            "count" : 576,
            "componentType" : 5126,
            "bufferView" : 18,
            "min" : [
                -0.2112428992986679,
                -0.04186907410621643,
                -0.08339212089776993
            ]
        },
        {
            "componentType" : 5126,
            "bufferView" : 19,
            "type" : "VEC3",
            "count" : 576
        },
        {
            "componentType" : 5126,
            "bufferView" : 20,
            "type" : "VEC2",
            "count" : 576
        },
        {
            "componentType" : 5123,
            "bufferView" : 21,
            "type" : "SCALAR",
            "count" : 1716
        },
        {
            "type" : "VEC3",
            "max" : [
                1.0299999713897705,
                1,
                1.059999942779541
            ],
            "count" : 344,
            "componentType" : 5126,
            "bufferView" : 22,
            "min" : [
                -1.0299999713897705,
                -6.160418510437012,
                -1.059999942779541
            ]
        },
        {
            "componentType" : 5126,
            "bufferView" : 23,
            "type" : "VEC3",
            "count" : 344
        },
        {
            "componentType" : 5126,
            "bufferView" : 24,
            "type" : "VEC2",
            "count" : 344
        },
        {
            "componentType" : 5123,
            "bufferView" : 25,
            "type" : "SCALAR",
            "count" : 516
        },
        {
            "type" : "VEC3",
            "max" : [
                0.5,
                0.27875444293022156,
                1
            ],
            "count" : 108,
            "componentType" : 5126,
            "bufferView" : 27,
            "min" : [
                -0.5,
                -0.27875444293022156,
                -1
            ]
        },
        {
            "componentType" : 5126,
            "bufferView" : 28,
            "type" : "VEC3",
            "count" : 108
        },
        {
            "componentType" : 5126,
            "bufferView" : 29,
            "type" : "VEC2",
            "count" : 108
        },
        {
            "componentType" : 5123,
            "bufferView" : 30,
            "type" : "SCALAR",
            "count" : 204
        }
    ],
    "bufferViews" : [
        {
            "buffer" : 0,
            "byteOffset" : 0,
            "byteLength" : 1392
        },
        {
            "buffer" : 0,
            "byteOffset" : 1392,
            "byteLength" : 1392
        },
        {
            "buffer" : 0,
            "byteOffset" : 2784,
            "byteLength" : 928
        },
        {
            "buffer" : 0,
            "byteOffset" : 3712,
            "byteLength" : 564
        },
        {
            "buffer" : 0,
            "byteOffset" : 4276,
            "byteLength" : 52528
        },
        {
            "buffer" : 0,
            "byteOffset" : 56804,
            "byteLength" : 144
        },
        {
            "buffer" : 0,
            "byteOffset" : 56948,
            "byteLength" : 144
        },
        {
            "buffer" : 0,
            "byteOffset" : 57092,
            "byteLength" : 96
        },
        {
            "buffer" : 0,
            "byteOffset" : 57188,
            "byteLength" : 36
        },
        {
            "buffer" : 0,
            "byteOffset" : 57224,
            "byteLength" : 14292
        },
        {
            "buffer" : 0,
            "byteOffset" : 71516,
            "byteLength" : 14292
        },
        {
            "buffer" : 0,
            "byteOffset" : 85808,
            "byteLength" : 9528
        },
        {
            "buffer" : 0,
            "byteOffset" : 95336,
            "byteLength" : 11088
        },
        {
            "buffer" : 0,
            "byteOffset" : 106424,
            "byteLength" : 56054
        },
        {
            "buffer" : 0,
            "byteOffset" : 162480,
            "byteLength" : 14148
        },
        {
            "buffer" : 0,
            "byteOffset" : 176628,
            "byteLength" : 14148
        },
        {
            "buffer" : 0,
            "byteOffset" : 190776,
            "byteLength" : 9432
        },
        {
            "buffer" : 0,
            "byteOffset" : 200208,
            "byteLength" : 10176
        },
        {
            "buffer" : 0,
            "byteOffset" : 210384,
            "byteLength" : 6912
        },
        {
            "buffer" : 0,
            "byteOffset" : 217296,
            "byteLength" : 6912
        },
        {
            "buffer" : 0,
            "byteOffset" : 224208,
            "byteLength" : 4608
        },
        {
            "buffer" : 0,
            "byteOffset" : 228816,
            "byteLength" : 3432
        },
        {
            "buffer" : 0,
            "byteOffset" : 232248,
            "byteLength" : 4128
        },
        {
            "buffer" : 0,
            "byteOffset" : 236376,
            "byteLength" : 4128
        },
        {
            "buffer" : 0,
            "byteOffset" : 240504,
            "byteLength" : 2752
        },
        {
            "buffer" : 0,
            "byteOffset" : 243256,
            "byteLength" : 1032
        },
        {
            "buffer" : 0,
            "byteOffset" : 244288,
            "byteLength" : 50960
        },
        {
            "buffer" : 0,
            "byteOffset" : 295248,
            "byteLength" : 1296
        },
        {
            "buffer" : 0,
            "byteOffset" : 296544,
            "byteLength" : 1296
        },
        {
            "buffer" : 0,
            "byteOffset" : 297840,
            "byteLength" : 864
        },
        {
            "buffer" : 0,
            "byteOffset" : 298704,
            "byteLength" : 408
        },
        {
            "buffer" : 0,
            "byteOffset" : 299112,
            "byteLength" : 56266
        }
    ],
    "buffers" : [
        {
            "uri" : "data:application/octet-stream;base64,",
            "byteLength" : 355380
        }
    ]
}
