{
    "asset" : {
        "version" : "2.0",
        "generator" : "Khronos glTF Blender I/O v1.2.20"
    },
    "scene" : 0,
    "scenes" : [
        {
            "nodes" : [
                0
            ],
            "name" : "Scene"
        }
    ],
    "nodes" : [
        {
            "rotation" : [
                0,
                0,
                -0.9393289089202881,
                0.34301772713661194
            ],
            "translation" : [
                1.1455209255218506,
                1.5081592798233032,
                -7.175200462341309
            ],
            "name" : "Swiatlo",
            "mesh" : 0
        }
    ],
    "materials" : [
        {
            "pbrMetallicRoughness" : {
                "roughnessFactor" : 1,
                "metallicFactor" : 0,
                "baseColorTexture" : {
                    "index" : 0,
                    "texCoord" : 0
                }
            },
            "name" : "Material.002"
        }
    ],
    "meshes" : [
        {
            "name" : "Cylinder.002",
            "primitives" : [
                {
                    "attributes" : {
                        "POSITION" : 0,
                        "NORMAL" : 1,
                        "TEXCOORD_0" : 2
                    },
                    "indices" : 3,
                    "material" : 0
                }
            ]
        }
    ],
    "textures" : [
        {
            "source" : 0
        }
    ],
    "images" : [
        {
            "bufferView" : 4,
            "name" : "latarenka",
            "mimeType" : "image/png"
        }
    ],
    "accessors" : [
        {
            "type" : "VEC3",
            "max" : [
                0.14048174023628235,
                0.32875505089759827,
                0.10667386651039124
            ],
            "count" : 385,
            "componentType" : 5126,
            "bufferView" : 0,
            "min" : [
                -0.11415383219718933,
                0.06446817517280579,
                -0.1066739484667778
            ]
        },
        {
            "componentType" : 5126,
            "bufferView" : 1,
            "type" : "VEC3",
            "count" : 385
        },
        {
            "componentType" : 5126,
            "bufferView" : 2,
            "type" : "VEC2",
            "count" : 385
        },
        {
            "componentType" : 5123,
            "bufferView" : 3,
            "type" : "SCALAR",
            "count" : 1716
        }
    ],
    "bufferViews" : [
        {
            "buffer" : 0,
            "byteOffset" : 0,
            "byteLength" : 4620
        },
        {
            "buffer" : 0,
            "byteOffset" : 4620,
            "byteLength" : 4620
        },
        {
            "buffer" : 0,
            "byteOffset" : 9240,
            "byteLength" : 3080
        },
        {
            "buffer" : 0,
            "byteOffset" : 12320,
            "byteLength" : 3432
        },
        {
            "buffer" : 0,
            "byteOffset" : 15752,
            "byteLength" : 56054
        }
    ],
    "buffers" : [
        {
            "uri" : "data:application/octet-stream;base64,",
            "byteLength" : 71808
        }
    ]
}
