{
    "asset" : {
        "generator" : "Khronos glTF Blender I/O v1.2.20",
        "version" : "2.0"
    },
    "scene" : 0,
    "scenes" : [
        {
            "name" : "Scene",
            "nodes" : [
                0
            ]
        }
    ],
    "nodes" : [
        {
            "name" : "Swiatlo",
            "rotation" : [
                0,
                0,
                -0.9393289089202881,
                0.34301772713661194
            ],
            "translation" : [
                1.1455209255218506,
                1.5081592798233032,
                -7.175200462341309
            ],
            "mesh" : 0
        }
    ],
    "materials" : [
        {
            "name" : "Material.002",
            "pbrMetallicRoughness" : {
                "roughnessFactor" : 1,
                "metallicFactor" : 0,
                "baseColorTexture" : {
                    "texCoord" : 0,
                    "index" : 0
                }
            }
        }
    ],
    "meshes" : [
        {
            "name" : "Cylinder.002",
            "primitives" : [
                {
                    "indices" : 3,
                    "attributes" : {
                        "NORMAL" : 0,
                        "POSITION" : 1,
                        "TEXCOORD_0" : 2
                    },
                    "material" : 0
                }
            ]
        }
    ],
    "textures" : [
        {
            "source" : 0
        }
    ],
    "images" : [
        {
            "name" : "latarenka",
            "bufferView" : 4,
            "mimeType" : "image/png"
        }
    ],
    "accessors" : [
        {
            "bufferView" : 0,
            "componentType" : 5126,
            "type" : "VEC3",
            "count" : 385
        },
        {
            "min" : [
                -0.11415383219718933,
                0.06446817517280579,
                -0.1066739484667778
            ],
            "bufferView" : 1,
            "componentType" : 5126,
            "type" : "VEC3",
            "max" : [
                0.14048174023628235,
                0.32875505089759827,
                0.10667386651039124
            ],
            "count" : 385
        },
        {
            "bufferView" : 2,
            "componentType" : 5126,
            "type" : "VEC2",
            "count" : 385
        },
        {
            "bufferView" : 3,
            "componentType" : 5123,
            "type" : "SCALAR",
            "count" : 1716
        }
    ],
    "bufferViews" : [
        {
            "byteLength" : 4620,
            "buffer" : 0,
            "byteOffset" : 0
        },
        {
            "byteLength" : 4620,
            "buffer" : 0,
            "byteOffset" : 4620
        },
        {
            "byteLength" : 3080,
            "buffer" : 0,
            "byteOffset" : 9240
        },
        {
            "byteLength" : 3432,
            "buffer" : 0,
            "byteOffset" : 12320
        },
        {
            "byteLength" : 77228,
            "buffer" : 0,
            "byteOffset" : 15752
        }
    ],
    "buffers" : [
        {
            "uri" : "data:application/octet-stream;base64,",
            "byteLength" : 92980
        }
    ]
}
